<svg width="14" height="9" viewBox="0 0 14 9" fill="none" xmlns="http://www.w3.org/2000/svg">
<path fill-rule="evenodd" clip-rule="evenodd" d="M13.6764 0.816471C13.6764 0.365546 13.3362 0 12.9166 0H12.1568C11.7372 0 11.397 0.365546 11.397 0.816471V7.89255C11.397 8.34347 11.7372 8.70902 12.1568 8.70902H12.9166C13.3362 8.70902 13.6764 8.34347 13.6764 7.89255V0.816471ZM8.38098 1.7418H9.14078C9.56041 1.7418 9.90058 2.11612 9.90058 2.57787V7.87295C9.90058 8.3347 9.56041 8.70902 9.14078 8.70902H8.38098C7.96135 8.70902 7.62118 8.3347 7.62118 7.87295V2.57787C7.62118 2.11612 7.96135 1.7418 8.38098 1.7418ZM5.29541 3.62875H4.53561C4.11598 3.62875 3.77581 4.00784 3.77581 4.47546V7.8623C3.77581 8.32993 4.11598 8.70901 4.53561 8.70901H5.29541C5.71503 8.70901 6.05521 8.32993 6.05521 7.8623V4.47546C6.05521 4.00784 5.71503 3.62875 5.29541 3.62875ZM1.5196 5.37056H0.759799C0.340174 5.37056 0 5.74423 0 6.20518V7.87441C0 8.33535 0.340174 8.70902 0.759799 8.70902H1.5196C1.93922 8.70902 2.2794 8.33535 2.2794 7.87441V6.20518C2.2794 5.74423 1.93922 5.37056 1.5196 5.37056Z" fill="black"/>
</svg>
