<svg width="13" height="9" viewBox="0 0 13 9" fill="none" xmlns="http://www.w3.org/2000/svg">
<path fill-rule="evenodd" clip-rule="evenodd" d="M6.10544 1.75676C7.87704 1.75684 9.58089 2.41365 10.8648 3.59144C10.9615 3.68237 11.1161 3.68122 11.2113 3.58887L12.1355 2.68889C12.1837 2.64204 12.2106 2.57859 12.2102 2.51258C12.2098 2.44656 12.1822 2.38342 12.1334 2.33712C8.76342 -0.77904 3.44693 -0.77904 0.0769695 2.33712C0.0281534 2.38338 0.000455713 2.44651 5.57312e-06 2.51252C-0.000444567 2.57854 0.02639 2.64201 0.0745711 2.68889L0.999056 3.58887C1.09422 3.68136 1.24888 3.68251 1.3455 3.59144C2.62962 2.41357 4.33367 1.75676 6.10544 1.75676ZM6.10305 4.76291C7.06989 4.76285 8.00222 5.12737 8.71889 5.78564C8.81582 5.87906 8.96852 5.87704 9.06301 5.78108L9.97995 4.84132C10.0282 4.79202 10.055 4.72515 10.0543 4.65567C10.0536 4.58618 10.0255 4.51988 9.97625 4.47159C7.79384 2.4124 4.41411 2.4124 2.23171 4.47159C2.18241 4.51988 2.15428 4.58621 2.15364 4.65572C2.15299 4.72523 2.17988 4.7921 2.22827 4.84132L3.14495 5.78108C3.23944 5.87704 3.39213 5.87906 3.48907 5.78564C4.20526 5.12781 5.13686 4.76332 6.10305 4.76291ZM7.90123 6.75279C7.9026 6.82784 7.8762 6.90019 7.82826 6.95276L6.2778 8.70129C6.23235 8.75268 6.17038 8.7816 6.10572 8.7816C6.04107 8.7816 5.9791 8.75268 5.93365 8.70129L4.38293 6.95276C4.33503 6.90015 4.30867 6.82777 4.31009 6.75273C4.31151 6.67769 4.34058 6.60663 4.39043 6.55633C5.38062 5.62043 6.83083 5.62043 7.82102 6.55633C7.87083 6.60667 7.89986 6.67775 7.90123 6.75279Z" fill="black"/>
</svg>
