<svg width="294" height="65" viewBox="0 0 294 65" fill="none" xmlns="http://www.w3.org/2000/svg">
<g filter="url(#filter0_d_859_2430)">
<g clip-path="url(#clip0_859_2430)">
<g filter="url(#filter1_d_859_2430)">
<rect x="-1.02344" y="6.41101" width="294.897" height="59.1219" fill="white"/>
</g>
<line x1="2.53809" y1="7.12326" x2="66.6462" y2="7.12325" stroke="black" stroke-width="1.42462"/>
</g>
<g clip-path="url(#clip1_859_2430)">
<rect x="98.7002" y="54.848" width="95.4498" height="3.56156" rx="1.78078" fill="#060606"/>
</g>
<path d="M43.1865 22.1777L46.0361 23.8486V25.6289H44.6113V31.3281C44.6112 33.295 43.0167 34.8896 41.0498 34.8896H38.2002V29.1904H33.9268V34.8896H31.0771C29.1104 34.8895 27.5158 33.2949 27.5156 31.3281V25.6289H25.3789V23.8486L35.707 17.7939L40.3369 20.5078V17.7939H43.1865V22.1777Z" fill="black"/>
<path d="M29.0652 40.9626V41.4008H25.3715V40.9626H29.0652ZM25.4925 38.2372V44.3141H24.9792V38.2372H25.4925ZM29.4784 38.2372V44.3141H28.9651V38.2372H29.4784ZM30.425 42.1271V41.9893C30.425 41.661 30.4723 41.3577 30.5669 41.0795C30.6615 40.8012 30.7965 40.5605 30.9718 40.3574C31.1498 40.1543 31.3627 39.9971 31.6103 39.8858C31.858 39.7717 32.1334 39.7147 32.4367 39.7147C32.7428 39.7147 33.0197 39.7717 33.2673 39.8858C33.5149 39.9971 33.7278 40.1543 33.9059 40.3574C34.084 40.5605 34.2203 40.8012 34.3149 41.0795C34.4095 41.3577 34.4568 41.661 34.4568 41.9893V42.1271C34.4568 42.4554 34.4095 42.7587 34.3149 43.0369C34.2203 43.3124 34.084 43.5517 33.9059 43.7548C33.7306 43.9579 33.5191 44.1165 33.2715 44.2306C33.0238 44.3419 32.7484 44.3976 32.4451 44.3976C32.139 44.3976 31.8622 44.3419 31.6145 44.2306C31.3669 44.1165 31.154 43.9579 30.9759 43.7548C30.7979 43.5517 30.6615 43.3124 30.5669 43.0369C30.4723 42.7587 30.425 42.4554 30.425 42.1271ZM30.9217 41.9893V42.1271C30.9217 42.3747 30.9551 42.6098 31.0219 42.8324C31.0886 43.0522 31.186 43.2484 31.314 43.4209C31.442 43.5906 31.6006 43.7242 31.7898 43.8216C31.979 43.919 32.1974 43.9677 32.4451 43.9677C32.6899 43.9677 32.9056 43.919 33.092 43.8216C33.2812 43.7242 33.4398 43.5906 33.5678 43.4209C33.6958 43.2484 33.7918 43.0522 33.8558 42.8324C33.9226 42.6098 33.956 42.3747 33.956 42.1271V41.9893C33.956 41.7445 33.9226 41.5121 33.8558 41.2923C33.7918 41.0725 33.6944 40.8763 33.5636 40.7038C33.4356 40.5313 33.277 40.395 33.0878 40.2948C32.8986 40.1946 32.6816 40.1446 32.4367 40.1446C32.1919 40.1446 31.9748 40.1946 31.7856 40.2948C31.5992 40.395 31.4406 40.5313 31.3098 40.7038C31.1818 40.8763 31.0845 41.0725 31.0177 41.2923C30.9537 41.5121 30.9217 41.7445 30.9217 41.9893ZM35.7498 40.7331V44.3141H35.249V39.7981H35.729L35.7498 40.7331ZM35.658 41.7765L35.4159 41.6513C35.4326 41.3841 35.4827 41.1337 35.5662 40.9C35.6524 40.6663 35.7721 40.4604 35.9251 40.2823C36.0782 40.1042 36.2618 39.9651 36.476 39.8649C36.6903 39.7648 36.9338 39.7147 37.2064 39.7147C37.4263 39.7147 37.6252 39.7453 37.8033 39.8065C37.9841 39.8649 38.1372 39.9581 38.2624 40.0861C38.3904 40.2113 38.4892 40.3755 38.5587 40.5786C38.6283 40.7817 38.6631 41.0252 38.6631 41.309V44.3141H38.1664V41.3257C38.1664 41.0252 38.1191 40.7901 38.0245 40.6204C37.9327 40.4506 37.8033 40.3296 37.6363 40.2572C37.4722 40.1849 37.2816 40.1487 37.0645 40.1487C36.8086 40.1487 36.5915 40.2016 36.4134 40.3073C36.2381 40.4103 36.0948 40.5452 35.9836 40.7122C35.875 40.8763 35.7943 41.053 35.7415 41.2422C35.6886 41.4287 35.6608 41.6067 35.658 41.7765ZM38.6589 41.3841L38.325 41.3925C38.3389 41.1727 38.389 40.9626 38.4753 40.7623C38.5643 40.5619 38.6853 40.3839 38.8384 40.228C38.9914 40.0694 39.1737 39.9442 39.3851 39.8524C39.5994 39.7606 39.8401 39.7147 40.1072 39.7147C40.3409 39.7147 40.5496 39.7467 40.7332 39.8107C40.9169 39.8719 41.0713 39.9707 41.1965 40.107C41.3245 40.2406 41.4219 40.4117 41.4887 40.6204C41.5554 40.829 41.5888 41.0795 41.5888 41.3716V44.3141H41.088V41.3675C41.088 41.0475 41.0407 40.7998 40.9461 40.6245C40.8543 40.4465 40.7263 40.3226 40.5621 40.2531C40.3979 40.1835 40.2059 40.1487 39.9861 40.1487C39.7691 40.1515 39.5785 40.1919 39.4143 40.2698C39.2502 40.3449 39.1124 40.4451 39.0011 40.5703C38.8926 40.6927 38.8091 40.8249 38.7507 40.9668C38.6951 41.1087 38.6645 41.2478 38.6589 41.3841ZM44.3886 44.3976C44.0936 44.3976 43.8223 44.3433 43.5747 44.2348C43.3298 44.1263 43.1156 43.9732 42.9319 43.7757C42.7511 43.5781 42.6106 43.3444 42.5104 43.0745C42.413 42.8018 42.3643 42.5041 42.3643 42.1813V42.0019C42.3643 41.654 42.4158 41.3396 42.5187 41.0586C42.6217 40.7776 42.7636 40.5369 42.9445 40.3365C43.1253 40.1362 43.3312 39.9832 43.5622 39.8774C43.7959 39.7689 44.0407 39.7147 44.2967 39.7147C44.5833 39.7147 44.8379 39.7661 45.0605 39.8691C45.2831 39.9693 45.4695 40.1126 45.6198 40.299C45.7728 40.4826 45.8883 40.7011 45.9662 40.9543C46.0441 41.2047 46.0831 41.4815 46.0831 41.7848V42.0895H42.6648V41.6638H45.5864V41.6054C45.5808 41.3521 45.5294 41.1156 45.432 40.8958C45.3374 40.6732 45.1955 40.4924 45.0063 40.3532C44.8171 40.2141 44.5805 40.1446 44.2967 40.1446C44.0853 40.1446 43.8905 40.1891 43.7124 40.2781C43.5371 40.3672 43.3855 40.4951 43.2575 40.6621C43.1323 40.8263 43.0349 41.0224 42.9653 41.2506C42.8985 41.476 42.8652 41.7264 42.8652 42.0019V42.1813C42.8652 42.4317 42.9013 42.6655 42.9737 42.8825C43.0488 43.0968 43.1545 43.286 43.2909 43.4501C43.43 43.6143 43.5942 43.7423 43.7834 43.8341C43.9726 43.9259 44.1813 43.9718 44.4094 43.9718C44.6765 43.9718 44.913 43.9232 45.119 43.8258C45.3249 43.7256 45.5099 43.5684 45.6741 43.3541L45.9871 43.5962C45.8897 43.7409 45.7673 43.8745 45.6198 43.9969C45.4751 44.1193 45.3012 44.2167 45.0981 44.289C44.895 44.3614 44.6585 44.3976 44.3886 44.3976Z" fill="#8C8C8C"/>
<circle cx="91.645" cy="20.6433" r="4.27387" fill="#8C8C8C"/>
<path d="M87.3711 28.4786C87.3711 27.2984 88.3278 26.3417 89.508 26.3417H93.7819C94.9621 26.3417 95.9188 27.2984 95.9188 28.4786V34.8894H87.3711V28.4786Z" fill="#8C8C8C"/>
<circle cx="100.549" cy="23.1362" r="3.2054" fill="#8C8C8C"/>
<path d="M97.3438 29.9032C97.3438 28.723 98.3005 27.7662 99.4807 27.7662H101.618C102.798 27.7662 103.755 28.723 103.755 29.9032V34.8894H97.3438V29.9032Z" fill="#8C8C8C"/>
<circle cx="100.549" cy="23.1362" r="3.2054" fill="#8C8C8C"/>
<path d="M97.3438 29.9032C97.3438 28.723 98.3005 27.7662 99.4807 27.7662H101.618C102.798 27.7662 103.755 28.723 103.755 29.9032V34.8894H97.3438V29.9032Z" fill="#8C8C8C"/>
<path d="M74.4932 38.2372H75.0108L77.2562 43.5879L79.5059 38.2372H80.0192L77.4524 44.3141H77.0601L74.4932 38.2372ZM74.3346 38.2372H74.7896L74.8438 41.6596V44.3141H74.3346V38.2372ZM79.7312 38.2372H80.1862V44.3141H79.6728V41.6596L79.7312 38.2372ZM82.7396 43.8633L84.1462 39.7981H84.6846L82.773 45.0403C82.7341 45.1433 82.684 45.2573 82.6228 45.3826C82.5643 45.5078 82.4864 45.6274 82.389 45.7415C82.2944 45.8584 82.1748 45.953 82.0301 46.0253C81.8882 46.1004 81.7143 46.138 81.5084 46.138C81.4555 46.138 81.3874 46.131 81.3039 46.1171C81.2232 46.106 81.1648 46.0949 81.1286 46.0837L81.1244 45.6622C81.155 45.6705 81.1995 45.6775 81.258 45.6831C81.3164 45.6886 81.3568 45.6914 81.379 45.6914C81.5599 45.6914 81.7115 45.6608 81.8339 45.5996C81.9592 45.5384 82.0635 45.4466 82.147 45.3241C82.2304 45.2045 82.3042 45.0542 82.3682 44.8734L82.7396 43.8633ZM81.4249 39.7981L82.8648 43.6755L82.9984 44.1972L82.6353 44.4017L80.8823 39.7981H81.4249ZM91.7657 38.2372V44.3141H91.2481L87.7548 39.122V44.3141H87.2414V38.2372H87.7548L91.2565 43.4293V38.2372H91.7657ZM94.7324 44.3976C94.4374 44.3976 94.1661 44.3433 93.9185 44.2348C93.6736 44.1263 93.4594 43.9732 93.2757 43.7757C93.0949 43.5781 92.9544 43.3444 92.8542 43.0745C92.7568 42.8018 92.7081 42.5041 92.7081 42.1813V42.0019C92.7081 41.654 92.7596 41.3396 92.8625 41.0586C92.9655 40.7776 93.1074 40.5369 93.2883 40.3365C93.4691 40.1362 93.675 39.9832 93.906 39.8774C94.1397 39.7689 94.3845 39.7147 94.6405 39.7147C94.9271 39.7147 95.1817 39.7661 95.4043 39.8691C95.6269 39.9693 95.8133 40.1126 95.9636 40.299C96.1166 40.4826 96.2321 40.7011 96.31 40.9543C96.3879 41.2047 96.4269 41.4815 96.4269 41.7848V42.0895H93.0086V41.6638H95.9302V41.6054C95.9246 41.3521 95.8732 41.1156 95.7758 40.8958C95.6812 40.6732 95.5393 40.4924 95.3501 40.3532C95.1609 40.2141 94.9243 40.1446 94.6405 40.1446C94.4291 40.1446 94.2343 40.1891 94.0562 40.2781C93.8809 40.3672 93.7293 40.4951 93.6013 40.6621C93.4761 40.8263 93.3787 41.0224 93.3091 41.2506C93.2423 41.476 93.209 41.7264 93.209 42.0019V42.1813C93.209 42.4317 93.2451 42.6655 93.3175 42.8825C93.3926 43.0968 93.4983 43.286 93.6347 43.4501C93.7738 43.6143 93.938 43.7423 94.1272 43.8341C94.3164 43.9259 94.5251 43.9718 94.7532 43.9718C95.0203 43.9718 95.2568 43.9232 95.4628 43.8258C95.6687 43.7256 95.8537 43.5684 96.0179 43.3541L96.3309 43.5962C96.2335 43.7409 96.1111 43.8745 95.9636 43.9969C95.8189 44.1193 95.645 44.2167 95.4419 44.289C95.2388 44.3614 95.0023 44.3976 94.7324 44.3976ZM98.9052 39.7981V40.2072H96.6431V39.7981H98.9052ZM97.4736 38.6379H97.9703V43.2164C97.9703 43.4251 97.9981 43.5823 98.0538 43.688C98.1094 43.7938 98.1818 43.8647 98.2708 43.9009C98.3599 43.9371 98.4559 43.9551 98.5588 43.9551C98.6339 43.9551 98.7063 43.951 98.7758 43.9426C98.8454 43.9315 98.908 43.9204 98.9637 43.9092L98.9845 44.3308C98.9233 44.3503 98.844 44.3656 98.7466 44.3767C98.6492 44.3906 98.5518 44.3976 98.4545 44.3976C98.2625 44.3976 98.0927 44.3628 97.9453 44.2932C97.7978 44.2209 97.6823 44.0984 97.5989 43.9259C97.5154 43.7506 97.4736 43.5127 97.4736 43.2122V38.6379ZM100.991 43.2581L102.081 39.7981H102.431L102.222 40.7289L101.083 44.3141H100.732L100.991 43.2581ZM99.8602 39.7981L100.816 43.279L101.02 44.3141H100.657L99.3468 39.7981H99.8602ZM103.788 43.2665L104.718 39.7981H105.232L103.921 44.3141H103.562L103.788 43.2665ZM102.502 39.7981L103.575 43.2289L103.846 44.3141H103.495L102.331 40.7247L102.135 39.7981H102.502ZM105.703 42.1271V41.9893C105.703 41.661 105.75 41.3577 105.844 41.0795C105.939 40.8012 106.074 40.5605 106.249 40.3574C106.427 40.1543 106.64 39.9971 106.888 39.8858C107.135 39.7717 107.411 39.7147 107.714 39.7147C108.02 39.7147 108.297 39.7717 108.545 39.8858C108.792 39.9971 109.005 40.1543 109.183 40.3574C109.361 40.5605 109.498 40.8012 109.592 41.0795C109.687 41.3577 109.734 41.661 109.734 41.9893V42.1271C109.734 42.4554 109.687 42.7587 109.592 43.0369C109.498 43.3124 109.361 43.5517 109.183 43.7548C109.008 43.9579 108.797 44.1165 108.549 44.2306C108.301 44.3419 108.026 44.3976 107.723 44.3976C107.417 44.3976 107.14 44.3419 106.892 44.2306C106.644 44.1165 106.432 43.9579 106.253 43.7548C106.075 43.5517 105.939 43.3124 105.844 43.0369C105.75 42.7587 105.703 42.4554 105.703 42.1271ZM106.199 41.9893V42.1271C106.199 42.3747 106.233 42.6098 106.299 42.8324C106.366 43.0522 106.464 43.2484 106.592 43.4209C106.72 43.5906 106.878 43.7242 107.067 43.8216C107.257 43.919 107.475 43.9677 107.723 43.9677C107.967 43.9677 108.183 43.919 108.37 43.8216C108.559 43.7242 108.717 43.5906 108.845 43.4209C108.973 43.2484 109.069 43.0522 109.133 42.8324C109.2 42.6098 109.233 42.3747 109.233 42.1271V41.9893C109.233 41.7445 109.2 41.5121 109.133 41.2923C109.069 41.0725 108.972 40.8763 108.841 40.7038C108.713 40.5313 108.555 40.395 108.365 40.2948C108.176 40.1946 107.959 40.1446 107.714 40.1446C107.469 40.1446 107.252 40.1946 107.063 40.2948C106.877 40.395 106.718 40.5313 106.587 40.7038C106.459 40.8763 106.362 41.0725 106.295 41.2923C106.231 41.5121 106.199 41.7445 106.199 41.9893ZM111.052 40.5452V44.3141H110.556V39.7981H111.04L111.052 40.5452ZM112.651 39.7648L112.638 40.2239C112.583 40.2155 112.528 40.2086 112.476 40.203C112.423 40.1974 112.366 40.1946 112.304 40.1946C112.087 40.1946 111.897 40.235 111.733 40.3157C111.571 40.3936 111.435 40.5035 111.324 40.6454C111.212 40.7845 111.127 40.9487 111.069 41.1379C111.011 41.3243 110.977 41.5247 110.969 41.7389L110.785 41.8099C110.785 41.5149 110.816 41.2409 110.877 40.9876C110.938 40.7344 111.031 40.5132 111.157 40.324C111.285 40.132 111.445 39.9832 111.637 39.8774C111.831 39.7689 112.06 39.7147 112.321 39.7147C112.385 39.7147 112.448 39.7202 112.509 39.7314C112.573 39.7397 112.62 39.7508 112.651 39.7648ZM113.719 37.9033V44.3141H113.222V37.9033H113.719ZM116.552 39.7981L114.441 41.8933L113.543 42.7615L113.468 42.2731L114.19 41.4927L115.922 39.7981H116.552ZM116.118 44.3141L114.232 41.9685L114.507 41.5386L116.719 44.3141H116.118Z" fill="#8C8C8C"/>
<path d="M157.048 19.9305C158.621 19.9306 159.897 21.2066 159.897 22.7802V32.0399C159.897 33.6135 158.621 34.8895 157.048 34.8895H147.788C146.215 34.8895 144.939 33.6135 144.938 32.0399V22.7802C144.938 21.2066 146.214 19.9305 147.788 19.9305H157.048ZM151.442 26.4344H148.19V28.3856H151.442V31.6376H153.394V28.3856H156.645V26.4344H153.394V23.1825H151.442V26.4344Z" fill="#8C8C8C"/>
<path d="M146.756 41.8392H145.024V41.401H146.756C147.118 41.401 147.411 41.3425 147.637 41.2257C147.865 41.106 148.03 40.9446 148.133 40.7415C148.239 40.5384 148.292 40.3102 148.292 40.057C148.292 39.8094 148.239 39.5812 148.133 39.3725C148.03 39.1639 147.865 38.9969 147.637 38.8717C147.411 38.7437 147.118 38.6797 146.756 38.6797H145.203V44.3142H144.69V38.2373H146.756C147.201 38.2373 147.576 38.3138 147.879 38.4669C148.185 38.6199 148.416 38.8327 148.572 39.1054C148.727 39.3781 148.805 39.6925 148.805 40.0487C148.805 40.4215 148.727 40.7429 148.572 41.0128C148.416 41.2799 148.186 41.4844 147.883 41.6263C147.58 41.7683 147.204 41.8392 146.756 41.8392ZM149.293 42.1272V41.9895C149.293 41.6611 149.34 41.3578 149.435 41.0796C149.529 40.8013 149.664 40.5607 149.84 40.3575C150.018 40.1544 150.231 39.9972 150.478 39.8859C150.726 39.7718 151.001 39.7148 151.305 39.7148C151.611 39.7148 151.888 39.7718 152.135 39.8859C152.383 39.9972 152.596 40.1544 152.774 40.3575C152.952 40.5607 153.088 40.8013 153.183 41.0796C153.277 41.3578 153.325 41.6611 153.325 41.9895V42.1272C153.325 42.4555 153.277 42.7588 153.183 43.0371C153.088 43.3125 152.952 43.5518 152.774 43.7549C152.598 43.9581 152.387 44.1167 152.139 44.2307C151.892 44.342 151.616 44.3977 151.313 44.3977C151.007 44.3977 150.73 44.342 150.482 44.2307C150.235 44.1167 150.022 43.9581 149.844 43.7549C149.666 43.5518 149.529 43.3125 149.435 43.0371C149.34 42.7588 149.293 42.4555 149.293 42.1272ZM149.79 41.9895V42.1272C149.79 42.3748 149.823 42.6099 149.89 42.8325C149.956 43.0524 150.054 43.2485 150.182 43.421C150.31 43.5908 150.468 43.7243 150.658 43.8217C150.847 43.9191 151.065 43.9678 151.313 43.9678C151.558 43.9678 151.773 43.9191 151.96 43.8217C152.149 43.7243 152.308 43.5908 152.436 43.421C152.564 43.2485 152.66 43.0524 152.724 42.8325C152.79 42.6099 152.824 42.3748 152.824 42.1272V41.9895C152.824 41.7446 152.79 41.5123 152.724 41.2924C152.66 41.0726 152.562 40.8765 152.431 40.704C152.303 40.5314 152.145 40.3951 151.956 40.2949C151.766 40.1948 151.549 40.1447 151.305 40.1447C151.06 40.1447 150.843 40.1948 150.653 40.2949C150.467 40.3951 150.308 40.5314 150.178 40.704C150.05 40.8765 149.952 41.0726 149.886 41.2924C149.822 41.5123 149.79 41.7446 149.79 41.9895ZM156.851 43.1623C156.851 43.0398 156.82 42.9188 156.759 42.7992C156.698 42.6795 156.579 42.5696 156.404 42.4694C156.232 42.3693 155.977 42.2844 155.64 42.2148C155.39 42.1592 155.166 42.0966 154.968 42.027C154.773 41.9575 154.609 41.874 154.476 41.7766C154.342 41.6792 154.241 41.5623 154.171 41.426C154.102 41.2897 154.067 41.1283 154.067 40.9419C154.067 40.7749 154.103 40.6177 154.175 40.4702C154.25 40.32 154.356 40.1892 154.492 40.0779C154.632 39.9638 154.799 39.8748 154.993 39.8108C155.191 39.7468 155.412 39.7148 155.657 39.7148C156.005 39.7148 156.302 39.7746 156.55 39.8943C156.801 40.0111 156.991 40.1711 157.122 40.3742C157.255 40.5774 157.322 40.8069 157.322 41.0629H156.826C156.826 40.9071 156.78 40.7596 156.688 40.6205C156.599 40.4814 156.467 40.3673 156.291 40.2782C156.119 40.1892 155.907 40.1447 155.657 40.1447C155.398 40.1447 155.188 40.1836 155.027 40.2615C154.865 40.3395 154.747 40.4382 154.672 40.5579C154.6 40.6775 154.563 40.8013 154.563 40.9293C154.563 41.0295 154.579 41.1213 154.609 41.2048C154.643 41.2855 154.701 41.3606 154.785 41.4302C154.871 41.4997 154.993 41.5651 155.152 41.6263C155.311 41.6876 155.516 41.7474 155.77 41.8058C156.134 41.8865 156.432 41.9853 156.663 42.1021C156.897 42.2162 157.069 42.3581 157.18 42.5279C157.292 42.6948 157.347 42.8979 157.347 43.1372C157.347 43.3237 157.308 43.4948 157.23 43.6506C157.153 43.8036 157.04 43.9358 156.892 44.0471C156.748 44.1584 156.572 44.2446 156.366 44.3059C156.163 44.3671 155.935 44.3977 155.682 44.3977C155.301 44.3977 154.978 44.3351 154.714 44.2099C154.452 44.0819 154.253 43.9149 154.117 43.709C153.983 43.5003 153.916 43.2791 153.916 43.0454H154.413C154.43 43.2791 154.504 43.4642 154.634 43.6005C154.765 43.7341 154.925 43.8287 155.114 43.8843C155.306 43.94 155.496 43.9678 155.682 43.9678C155.938 43.9678 156.152 43.9302 156.325 43.8551C156.497 43.78 156.628 43.6812 156.717 43.5588C156.806 43.4363 156.851 43.3042 156.851 43.1623ZM159.972 39.7983V40.2073H157.71V39.7983H159.972ZM158.54 38.638H159.037V43.2165C159.037 43.4252 159.065 43.5824 159.12 43.6882C159.176 43.7939 159.248 43.8648 159.337 43.901C159.426 43.9372 159.522 43.9553 159.625 43.9553C159.7 43.9553 159.773 43.9511 159.842 43.9427C159.912 43.9316 159.974 43.9205 160.03 43.9094L160.051 44.3309C159.99 44.3504 159.91 44.3657 159.813 44.3768C159.716 44.3907 159.618 44.3977 159.521 44.3977C159.329 44.3977 159.159 44.3629 159.012 44.2933C158.864 44.221 158.749 44.0986 158.665 43.9261C158.582 43.7508 158.54 43.5129 158.54 43.2124V38.638Z" fill="#8C8C8C"/>
<path d="M214.573 29.4562C215.085 29.866 216.109 31.1773 216.109 33.1437H210.267C210.216 34.1162 209.413 34.8896 208.428 34.8898C207.442 34.8898 206.64 34.1163 206.589 33.1437H200.438C200.438 31.1773 201.462 29.866 201.975 29.4562H214.573ZM208.428 19.9308C212.361 19.9309 213.651 23.3107 213.651 28.2267H202.896C202.897 23.925 203.512 19.9308 208.428 19.9308Z" fill="#8C8C8C"/>
<circle cx="214.684" cy="20.643" r="4.98618" fill="#CC1016"/>
<path d="M216.422 21.6952V22.1209H212.119V21.833L214.928 17.5799H215.345L214.752 18.6109L212.728 21.6952H216.422ZM215.474 17.5799V23.6569H214.978V17.5799H215.474Z" fill="white"/>
<path d="M192.57 38.2372V44.3141H192.052L188.559 39.122V44.3141H188.046V38.2372H188.559L192.061 43.4293V38.2372H192.57ZM193.516 42.1271V41.9893C193.516 41.661 193.564 41.3577 193.658 41.0795C193.753 40.8012 193.888 40.5605 194.063 40.3574C194.241 40.1543 194.454 39.9971 194.702 39.8858C194.949 39.7717 195.225 39.7147 195.528 39.7147C195.834 39.7147 196.111 39.7717 196.359 39.8858C196.606 39.9971 196.819 40.1543 196.997 40.3574C197.175 40.5605 197.312 40.8012 197.406 41.0795C197.501 41.3577 197.548 41.661 197.548 41.9893V42.1271C197.548 42.4554 197.501 42.7587 197.406 43.0369C197.312 43.3124 197.175 43.5517 196.997 43.7548C196.822 43.9579 196.611 44.1165 196.363 44.2306C196.115 44.3419 195.84 44.3976 195.537 44.3976C195.23 44.3976 194.954 44.3419 194.706 44.2306C194.458 44.1165 194.245 43.9579 194.067 43.7548C193.889 43.5517 193.753 43.3124 193.658 43.0369C193.564 42.7587 193.516 42.4554 193.516 42.1271ZM194.013 41.9893V42.1271C194.013 42.3747 194.047 42.6098 194.113 42.8324C194.18 43.0522 194.277 43.2484 194.405 43.4209C194.533 43.5906 194.692 43.7242 194.881 43.8216C195.07 43.919 195.289 43.9677 195.537 43.9677C195.781 43.9677 195.997 43.919 196.183 43.8216C196.373 43.7242 196.531 43.5906 196.659 43.4209C196.787 43.2484 196.883 43.0522 196.947 42.8324C197.014 42.6098 197.047 42.3747 197.047 42.1271V41.9893C197.047 41.7445 197.014 41.5121 196.947 41.2923C196.883 41.0725 196.786 40.8763 196.655 40.7038C196.527 40.5313 196.368 40.395 196.179 40.2948C195.99 40.1946 195.773 40.1446 195.528 40.1446C195.283 40.1446 195.066 40.1946 194.877 40.2948C194.691 40.395 194.532 40.5313 194.401 40.7038C194.273 40.8763 194.176 41.0725 194.109 41.2923C194.045 41.5121 194.013 41.7445 194.013 41.9893ZM200.077 39.7981V40.2072H197.815V39.7981H200.077ZM198.645 38.6379H199.142V43.2164C199.142 43.4251 199.17 43.5823 199.225 43.688C199.281 43.7938 199.353 43.8647 199.442 43.9009C199.531 43.9371 199.627 43.9551 199.73 43.9551C199.805 43.9551 199.878 43.951 199.947 43.9426C200.017 43.9315 200.079 43.9204 200.135 43.9092L200.156 44.3308C200.095 44.3503 200.015 44.3656 199.918 44.3767C199.821 44.3906 199.723 44.3976 199.626 44.3976C199.434 44.3976 199.264 44.3628 199.117 44.2932C198.969 44.2209 198.854 44.0984 198.77 43.9259C198.687 43.7506 198.645 43.5127 198.645 43.2122V38.6379ZM201.466 39.7981V44.3141H200.969V39.7981H201.466ZM200.881 38.4918C200.881 38.3972 200.911 38.3179 200.969 38.2539C201.03 38.1871 201.114 38.1537 201.219 38.1537C201.325 38.1537 201.409 38.1871 201.47 38.2539C201.534 38.3179 201.566 38.3972 201.566 38.4918C201.566 38.5836 201.534 38.6629 201.47 38.7297C201.409 38.7937 201.325 38.8257 201.219 38.8257C201.114 38.8257 201.03 38.7937 200.969 38.7297C200.911 38.6629 200.881 38.5836 200.881 38.4918ZM203.414 44.3141H202.917V39.3223C202.917 38.9968 202.977 38.7227 203.097 38.5001C203.219 38.2747 203.392 38.105 203.614 37.9909C203.84 37.8741 204.107 37.8156 204.416 37.8156C204.602 37.8156 204.791 37.8365 204.983 37.8782C205.175 37.92 205.369 37.9812 205.563 38.0619L205.484 38.4959C205.337 38.4319 205.182 38.3791 205.021 38.3373C204.859 38.2956 204.667 38.2747 204.445 38.2747C204.105 38.2747 203.848 38.3638 203.673 38.5419C203.5 38.7199 203.414 38.9801 203.414 39.3223V44.3141ZM204.47 39.7981V40.2072H202.166V39.7981H204.47ZM205.835 39.7981V44.3141H205.338V39.7981H205.835ZM208.668 43.9677C208.879 43.9677 209.077 43.9287 209.261 43.8508C209.447 43.7701 209.6 43.6519 209.72 43.496C209.842 43.3374 209.912 43.1441 209.928 42.9159H210.404C210.39 43.2025 210.303 43.4585 210.141 43.6839C209.983 43.9065 209.774 44.0818 209.515 44.2097C209.259 44.335 208.977 44.3976 208.668 44.3976C208.353 44.3976 208.075 44.3405 207.833 44.2264C207.594 44.1124 207.393 43.9538 207.232 43.7506C207.071 43.5447 206.948 43.3054 206.865 43.0328C206.784 42.7573 206.744 42.461 206.744 42.1438V41.9685C206.744 41.6513 206.784 41.3563 206.865 41.0836C206.948 40.8082 207.071 40.5689 207.232 40.3658C207.393 40.1599 207.594 39.9999 207.833 39.8858C208.072 39.7717 208.349 39.7147 208.664 39.7147C208.986 39.7147 209.276 39.7801 209.532 39.9108C209.791 40.0416 209.996 40.2266 210.15 40.4659C210.305 40.7052 210.39 40.989 210.404 41.3174H209.928C209.914 41.0753 209.85 40.8666 209.736 40.6913C209.622 40.516 209.472 40.3811 209.286 40.2865C209.099 40.1919 208.892 40.1446 208.664 40.1446C208.408 40.1446 208.189 40.1946 208.008 40.2948C207.828 40.3922 207.68 40.5271 207.566 40.6997C207.455 40.8694 207.373 41.0642 207.32 41.284C207.267 41.501 207.24 41.7292 207.24 41.9685V42.1438C207.24 42.3858 207.265 42.6168 207.316 42.8366C207.368 43.0536 207.451 43.247 207.562 43.4167C207.676 43.5865 207.823 43.7214 208.004 43.8216C208.188 43.919 208.409 43.9677 208.668 43.9677ZM213.943 43.5044V41.1755C213.943 40.9612 213.898 40.7762 213.809 40.6204C213.72 40.4645 213.589 40.3449 213.417 40.2614C213.244 40.1779 213.031 40.1362 212.778 40.1362C212.544 40.1362 212.336 40.1779 212.152 40.2614C211.971 40.3421 211.828 40.452 211.722 40.5911C211.619 40.7275 211.568 40.8791 211.568 41.0461L211.067 41.0419C211.067 40.8722 211.109 40.708 211.192 40.5494C211.276 40.3908 211.394 40.2489 211.547 40.1237C211.7 39.9985 211.882 39.8997 212.094 39.8274C212.308 39.7522 212.543 39.7147 212.799 39.7147C213.122 39.7147 213.406 39.7689 213.65 39.8774C213.898 39.986 214.091 40.1487 214.231 40.3658C214.37 40.5828 214.439 40.8555 214.439 41.1838V43.3667C214.439 43.5225 214.45 43.6839 214.473 43.8508C214.498 44.0178 214.532 44.1555 214.577 44.264V44.3141H214.047C214.014 44.2139 213.987 44.0887 213.968 43.9385C213.951 43.7854 213.943 43.6407 213.943 43.5044ZM214.059 41.6847L214.068 42.0686H213.087C212.831 42.0686 212.601 42.0923 212.398 42.1396C212.198 42.1841 212.028 42.2509 211.889 42.3399C211.75 42.4262 211.643 42.5305 211.568 42.653C211.495 42.7754 211.459 42.9145 211.459 43.0703C211.459 43.2317 211.5 43.3792 211.58 43.5127C211.664 43.6463 211.781 43.7534 211.931 43.8341C212.084 43.912 212.265 43.951 212.473 43.951C212.752 43.951 212.997 43.8995 213.208 43.7965C213.422 43.6936 213.599 43.5586 213.738 43.3917C213.877 43.2248 213.97 43.0425 214.018 42.8449L214.235 43.1329C214.199 43.2721 214.132 43.4153 214.034 43.5628C213.94 43.7075 213.816 43.8438 213.663 43.9718C213.51 44.0971 213.329 44.2 213.12 44.2807C212.914 44.3586 212.681 44.3976 212.419 44.3976C212.124 44.3976 211.867 44.3419 211.647 44.2306C211.43 44.1193 211.26 43.9677 211.138 43.7757C211.018 43.5809 210.958 43.3611 210.958 43.1162C210.958 42.8936 211.006 42.6947 211.1 42.5194C211.195 42.3413 211.331 42.1911 211.509 42.0686C211.69 41.9434 211.907 41.8488 212.16 41.7848C212.416 41.718 212.703 41.6847 213.02 41.6847H214.059ZM217.272 39.7981V40.2072H215.01V39.7981H217.272ZM215.841 38.6379H216.337V43.2164C216.337 43.4251 216.365 43.5823 216.421 43.688C216.477 43.7938 216.549 43.8647 216.638 43.9009C216.727 43.9371 216.823 43.9551 216.926 43.9551C217.001 43.9551 217.073 43.951 217.143 43.9426C217.213 43.9315 217.275 43.9204 217.331 43.9092L217.352 44.3308C217.29 44.3503 217.211 44.3656 217.114 44.3767C217.016 44.3906 216.919 44.3976 216.822 44.3976C216.63 44.3976 216.46 44.3628 216.312 44.2932C216.165 44.2209 216.049 44.0984 215.966 43.9259C215.882 43.7506 215.841 43.5127 215.841 43.2122V38.6379ZM218.661 39.7981V44.3141H218.165V39.7981H218.661ZM218.077 38.4918C218.077 38.3972 218.106 38.3179 218.165 38.2539C218.226 38.1871 218.309 38.1537 218.415 38.1537C218.521 38.1537 218.604 38.1871 218.666 38.2539C218.73 38.3179 218.762 38.3972 218.762 38.4918C218.762 38.5836 218.73 38.6629 218.666 38.7297C218.604 38.7937 218.521 38.8257 218.415 38.8257C218.309 38.8257 218.226 38.7937 218.165 38.7297C218.106 38.6629 218.077 38.5836 218.077 38.4918ZM219.537 42.1271V41.9893C219.537 41.661 219.584 41.3577 219.679 41.0795C219.774 40.8012 219.908 40.5605 220.084 40.3574C220.262 40.1543 220.475 39.9971 220.722 39.8858C220.97 39.7717 221.245 39.7147 221.549 39.7147C221.855 39.7147 222.132 39.7717 222.379 39.8858C222.627 39.9971 222.84 40.1543 223.018 40.3574C223.196 40.5605 223.332 40.8012 223.427 41.0795C223.521 41.3577 223.569 41.661 223.569 41.9893V42.1271C223.569 42.4554 223.521 42.7587 223.427 43.0369C223.332 43.3124 223.196 43.5517 223.018 43.7548C222.843 43.9579 222.631 44.1165 222.383 44.2306C222.136 44.3419 221.86 44.3976 221.557 44.3976C221.251 44.3976 220.974 44.3419 220.726 44.2306C220.479 44.1165 220.266 43.9579 220.088 43.7548C219.91 43.5517 219.774 43.3124 219.679 43.0369C219.584 42.7587 219.537 42.4554 219.537 42.1271ZM220.034 41.9893V42.1271C220.034 42.3747 220.067 42.6098 220.134 42.8324C220.201 43.0522 220.298 43.2484 220.426 43.4209C220.554 43.5906 220.713 43.7242 220.902 43.8216C221.091 43.919 221.309 43.9677 221.557 43.9677C221.802 43.9677 222.018 43.919 222.204 43.8216C222.393 43.7242 222.552 43.5906 222.68 43.4209C222.808 43.2484 222.904 43.0522 222.968 42.8324C223.035 42.6098 223.068 42.3747 223.068 42.1271V41.9893C223.068 41.7445 223.035 41.5121 222.968 41.2923C222.904 41.0725 222.806 40.8763 222.676 40.7038C222.548 40.5313 222.389 40.395 222.2 40.2948C222.011 40.1946 221.794 40.1446 221.549 40.1446C221.304 40.1446 221.087 40.1946 220.898 40.2948C220.711 40.395 220.553 40.5313 220.422 40.7038C220.294 40.8763 220.196 41.0725 220.13 41.2923C220.066 41.5121 220.034 41.7445 220.034 41.9893ZM224.887 40.7623V44.3141H224.39V39.7981H224.866L224.887 40.7623ZM224.774 41.7765L224.553 41.6513C224.57 41.3841 224.624 41.1337 224.716 40.9C224.808 40.6663 224.931 40.4604 225.087 40.2823C225.246 40.1042 225.431 39.9651 225.642 39.8649C225.857 39.7648 226.093 39.7147 226.352 39.7147C226.577 39.7147 226.779 39.7453 226.957 39.8065C227.135 39.8677 227.287 39.9651 227.412 40.0986C227.537 40.2322 227.632 40.4033 227.696 40.612C227.763 40.8207 227.796 41.0753 227.796 41.3758V44.3141H227.295V41.3716C227.295 41.06 227.252 40.8165 227.166 40.6412C227.079 40.4632 226.957 40.3365 226.798 40.2614C226.64 40.1863 226.452 40.1487 226.235 40.1487C225.996 40.1487 225.786 40.2016 225.605 40.3073C225.427 40.4103 225.276 40.5452 225.154 40.7122C225.034 40.8763 224.942 41.053 224.878 41.2422C224.814 41.4287 224.78 41.6067 224.774 41.7765Z" fill="#8C8C8C"/>
<path d="M263.026 19.9312C262.601 19.9312 262.193 20.113 261.893 20.4367C261.592 20.7604 261.423 21.1994 261.423 21.6571V22.2325H257.684C257.259 22.2325 256.851 22.4143 256.55 22.738C256.25 23.0617 256.081 23.5007 256.081 23.9585V25.551L264.216 27.8868C264.487 27.9643 264.771 27.9643 265.041 27.8868L273.177 25.551V23.9585C273.177 23.5007 273.008 23.0617 272.707 22.738C272.407 22.4143 271.999 22.2325 271.574 22.2325H267.834V21.6571C267.834 21.1994 267.665 20.7604 267.365 20.4367C267.064 20.113 266.657 19.9312 266.231 19.9312H263.026ZM263.026 21.0818H266.231C266.373 21.0818 266.509 21.1424 266.609 21.2503C266.709 21.3582 266.766 21.5046 266.766 21.6571V22.2325H262.492V21.6571C262.492 21.5046 262.548 21.3582 262.648 21.2503C262.749 21.1424 262.884 21.0818 263.026 21.0818Z" fill="#8C8C8C"/>
<path d="M256.081 33.1636C256.081 33.6213 256.25 34.0603 256.55 34.384C256.851 34.7077 257.259 34.8896 257.684 34.8896H271.574C271.999 34.8896 272.407 34.7077 272.707 34.384C273.008 34.0603 273.177 33.6213 273.177 33.1636V26.6624L264.767 29.0753C264.676 29.1013 264.581 29.1013 264.491 29.0753L256.081 26.6624V33.1636Z" fill="#8C8C8C"/>
<path d="M259.085 42.5027V38.2372H259.598V42.5027C259.598 42.9117 259.517 43.2567 259.356 43.5378C259.197 43.8188 258.98 44.0331 258.705 44.1805C258.429 44.3252 258.115 44.3976 257.762 44.3976C257.4 44.3976 257.08 44.3336 256.802 44.2056C256.526 44.0776 256.312 43.8842 256.159 43.6254C256.006 43.3639 255.929 43.0342 255.929 42.6363H256.443C256.443 42.9284 256.494 43.1733 256.597 43.3708C256.703 43.5656 256.855 43.7131 257.052 43.8132C257.25 43.9106 257.486 43.9593 257.762 43.9593C258.009 43.9593 258.232 43.9051 258.429 43.7965C258.63 43.6852 258.788 43.5225 258.905 43.3082C259.025 43.0912 259.085 42.8227 259.085 42.5027ZM260.503 42.1271V41.9893C260.503 41.661 260.55 41.3577 260.645 41.0795C260.739 40.8012 260.874 40.5605 261.05 40.3574C261.228 40.1543 261.441 39.9971 261.688 39.8858C261.936 39.7717 262.211 39.7147 262.515 39.7147C262.821 39.7147 263.098 39.7717 263.345 39.8858C263.593 39.9971 263.806 40.1543 263.984 40.3574C264.162 40.5605 264.298 40.8012 264.393 41.0795C264.487 41.3577 264.535 41.661 264.535 41.9893V42.1271C264.535 42.4554 264.487 42.7587 264.393 43.0369C264.298 43.3124 264.162 43.5517 263.984 43.7548C263.809 43.9579 263.597 44.1165 263.349 44.2306C263.102 44.3419 262.826 44.3976 262.523 44.3976C262.217 44.3976 261.94 44.3419 261.692 44.2306C261.445 44.1165 261.232 43.9579 261.054 43.7548C260.876 43.5517 260.739 43.3124 260.645 43.0369C260.55 42.7587 260.503 42.4554 260.503 42.1271ZM261 41.9893V42.1271C261 42.3747 261.033 42.6098 261.1 42.8324C261.167 43.0522 261.264 43.2484 261.392 43.4209C261.52 43.5906 261.679 43.7242 261.868 43.8216C262.057 43.919 262.275 43.9677 262.523 43.9677C262.768 43.9677 262.984 43.919 263.17 43.8216C263.359 43.7242 263.518 43.5906 263.646 43.4209C263.774 43.2484 263.87 43.0522 263.934 42.8324C264.001 42.6098 264.034 42.3747 264.034 42.1271V41.9893C264.034 41.7445 264.001 41.5121 263.934 41.2923C263.87 41.0725 263.772 40.8763 263.642 40.7038C263.514 40.5313 263.355 40.395 263.166 40.2948C262.977 40.1946 262.76 40.1446 262.515 40.1446C262.27 40.1446 262.053 40.1946 261.864 40.2948C261.677 40.395 261.519 40.5313 261.388 40.7038C261.26 40.8763 261.162 41.0725 261.096 41.2923C261.032 41.5121 261 41.7445 261 41.9893ZM265.348 37.9033H265.849V43.4376L265.815 44.3141H265.348V37.9033ZM268.991 42.0144V42.102C268.991 42.4387 268.952 42.7476 268.875 43.0286C268.797 43.3096 268.684 43.5531 268.536 43.759C268.389 43.9621 268.208 44.1193 267.994 44.2306C267.782 44.3419 267.539 44.3976 267.264 44.3976C266.994 44.3976 266.754 44.3558 266.546 44.2723C266.337 44.1861 266.159 44.0651 266.011 43.9092C265.864 43.7506 265.746 43.5656 265.657 43.3541C265.568 43.1399 265.505 42.9048 265.469 42.6488V41.5344C265.511 41.2617 265.577 41.0141 265.669 40.7915C265.761 40.5689 265.879 40.3769 266.024 40.2155C266.171 40.0541 266.347 39.9303 266.55 39.8441C266.756 39.7578 266.991 39.7147 267.255 39.7147C267.531 39.7147 267.775 39.7689 267.99 39.8774C268.207 39.9832 268.389 40.1376 268.536 40.3407C268.684 40.5411 268.797 40.7831 268.875 41.0669C268.952 41.348 268.991 41.6638 268.991 42.0144ZM268.486 42.102V42.0144C268.486 41.75 268.461 41.5052 268.411 41.2798C268.361 41.0544 268.282 40.8583 268.173 40.6913C268.068 40.5216 267.931 40.3894 267.764 40.2948C267.597 40.2002 267.397 40.1529 267.163 40.1529C266.924 40.1529 266.72 40.1933 266.55 40.2739C266.383 40.3519 266.244 40.4562 266.132 40.587C266.024 40.715 265.938 40.8555 265.874 41.0085C265.81 41.1616 265.762 41.3118 265.732 41.4593V42.7573C265.779 42.966 265.861 43.1621 265.978 43.3458C266.095 43.5294 266.252 43.6783 266.45 43.7924C266.647 43.9037 266.888 43.9593 267.172 43.9593C267.4 43.9593 267.596 43.912 267.76 43.8174C267.927 43.7228 268.063 43.592 268.169 43.4251C268.278 43.2581 268.357 43.062 268.407 42.8366C268.46 42.6112 268.486 42.3664 268.486 42.102ZM272.588 43.1621C272.588 43.0397 272.558 42.9187 272.497 42.799C272.435 42.6794 272.317 42.5695 272.142 42.4693C271.969 42.3691 271.715 42.2843 271.378 42.2147C271.128 42.1591 270.904 42.0965 270.706 42.0269C270.511 41.9573 270.347 41.8739 270.213 41.7765C270.08 41.6791 269.978 41.5622 269.909 41.4259C269.839 41.2895 269.804 41.1282 269.804 40.9417C269.804 40.7748 269.841 40.6176 269.913 40.4701C269.988 40.3199 270.094 40.1891 270.23 40.0778C270.369 39.9637 270.536 39.8747 270.731 39.8107C270.929 39.7467 271.15 39.7147 271.395 39.7147C271.742 39.7147 272.04 39.7745 272.288 39.8941C272.538 40.011 272.729 40.171 272.86 40.3741C272.993 40.5772 273.06 40.8068 273.06 41.0628H272.563C272.563 40.907 272.517 40.7595 272.426 40.6204C272.337 40.4812 272.204 40.3672 272.029 40.2781C271.857 40.1891 271.645 40.1446 271.395 40.1446C271.136 40.1446 270.926 40.1835 270.764 40.2614C270.603 40.3393 270.485 40.4381 270.41 40.5578C270.337 40.6774 270.301 40.8012 270.301 40.9292C270.301 41.0294 270.316 41.1212 270.347 41.2047C270.38 41.2854 270.439 41.3605 270.522 41.4301C270.609 41.4996 270.731 41.565 270.89 41.6262C271.048 41.6874 271.254 41.7473 271.507 41.8057C271.872 41.8864 272.17 41.9852 272.401 42.102C272.634 42.2161 272.807 42.358 272.918 42.5277C273.029 42.6947 273.085 42.8978 273.085 43.1371C273.085 43.3235 273.046 43.4946 272.968 43.6505C272.89 43.8035 272.778 43.9357 272.63 44.047C272.485 44.1583 272.31 44.2445 272.104 44.3057C271.901 44.367 271.673 44.3976 271.42 44.3976C271.038 44.3976 270.716 44.335 270.451 44.2097C270.19 44.0818 269.991 43.9148 269.855 43.7089C269.721 43.5002 269.654 43.279 269.654 43.0453H270.151C270.168 43.279 270.241 43.464 270.372 43.6004C270.503 43.7339 270.663 43.8285 270.852 43.8842C271.044 43.9398 271.233 43.9677 271.42 43.9677C271.676 43.9677 271.89 43.9301 272.062 43.855C272.235 43.7799 272.366 43.6811 272.455 43.5586C272.544 43.4362 272.588 43.3041 272.588 43.1621Z" fill="#8C8C8C"/>
</g>
<defs>
<filter id="filter0_d_859_2430" x="-3.87269" y="-9.05991e-06" width="300.596" height="65.5328" filterUnits="userSpaceOnUse" color-interpolation-filters="sRGB">
<feFlood flood-opacity="0" result="BackgroundImageFix"/>
<feColorMatrix in="SourceAlpha" type="matrix" values="0 0 0 0 0 0 0 0 0 0 0 0 0 0 0 0 0 0 127 0" result="hardAlpha"/>
<feOffset dy="-2.84925"/>
<feGaussianBlur stdDeviation="1.42462"/>
<feComposite in2="hardAlpha" operator="out"/>
<feColorMatrix type="matrix" values="0 0 0 0 0 0 0 0 0 0 0 0 0 0 0 0 0 0 0.25 0"/>
<feBlend mode="normal" in2="BackgroundImageFix" result="effect1_dropShadow_859_2430"/>
<feBlend mode="normal" in="SourceGraphic" in2="effect1_dropShadow_859_2430" result="shape"/>
</filter>
<filter id="filter1_d_859_2430" x="-1.02344" y="6.17595" width="294.897" height="59.357" filterUnits="userSpaceOnUse" color-interpolation-filters="sRGB">
<feFlood flood-opacity="0" result="BackgroundImageFix"/>
<feColorMatrix in="SourceAlpha" type="matrix" values="0 0 0 0 0 0 0 0 0 0 0 0 0 0 0 0 0 0 127 0" result="hardAlpha"/>
<feOffset dy="-0.235063"/>
<feColorMatrix type="matrix" values="0 0 0 0 0.741176 0 0 0 0 0.772549 0 0 0 0 0.803922 0 0 0 1 0"/>
<feBlend mode="normal" in2="BackgroundImageFix" result="effect1_dropShadow_859_2430"/>
<feBlend mode="normal" in="SourceGraphic" in2="effect1_dropShadow_859_2430" result="shape"/>
</filter>
<clipPath id="clip0_859_2430">
<rect width="294.897" height="59.8342" fill="white" transform="translate(-1.02344 5.69849)"/>
</clipPath>
<clipPath id="clip1_859_2430">
<rect width="294.897" height="24.9309" fill="white" transform="translate(-1.02344 40.6019)"/>
</clipPath>
</defs>
</svg>
