<svg width="273" height="310" viewBox="0 0 273 310" fill="none" xmlns="http://www.w3.org/2000/svg">
<g filter="url(#filter0_ddddddd_291_1932)">
<g clip-path="url(#clip0_291_1932)">
<g clip-path="url(#clip1_291_1932)">
<g clip-path="url(#clip2_291_1932)">
<mask id="mask0_291_1932" style="mask-type:luminance" maskUnits="userSpaceOnUse" x="22" y="0" width="251" height="256">
<path d="M272.103 34.6516L57.7402 0.699921L22.817 221.196L237.18 255.148L272.103 34.6516Z" fill="white"/>
</mask>
<g mask="url(#mask0_291_1932)">
<path d="M272.103 34.6516L57.7402 0.699921L22.817 221.196L237.18 255.148L272.103 34.6516Z" fill="white"/>
<g filter="url(#filter1_di_291_1932)">
<path d="M272.103 34.6516L57.7402 0.699921L51.9996 36.9447L266.362 70.8964L272.103 34.6516Z" fill="white"/>
<path d="M175.328 25.6931L152.546 22.0848C151.974 21.9942 151.437 22.3844 151.346 22.9563C151.256 23.5282 151.646 24.0653 152.218 24.1559L175 27.7643C175.572 27.8549 176.109 27.4647 176.2 26.8927C176.29 26.3208 175.9 25.7837 175.328 25.6931Z" fill="#EBEBEB"/>
<path d="M128.249 35.8793C128.261 35.6089 128.17 35.3836 127.976 35.2033C127.783 35.0212 127.521 34.904 127.192 34.8519C126.957 34.8146 126.747 34.8197 126.563 34.8673C126.379 34.913 126.229 34.9928 126.113 35.1067C126 35.2191 125.93 35.3567 125.904 35.5194C125.883 35.656 125.896 35.7789 125.944 35.8881C125.993 35.9976 126.065 36.0943 126.16 36.1783C126.256 36.2606 126.361 36.3339 126.476 36.398C126.59 36.4603 126.702 36.5144 126.809 36.5602L127.348 36.795C127.524 36.8689 127.702 36.9595 127.883 37.0667C128.063 37.1739 128.226 37.3032 128.371 37.4546C128.515 37.6061 128.624 37.7823 128.695 37.9835C128.769 38.185 128.785 38.4148 128.744 38.673C128.693 38.9985 128.563 39.2742 128.354 39.5C128.148 39.7262 127.874 39.887 127.533 39.9826C127.194 40.0784 126.8 40.0908 126.351 40.0197C125.92 39.9515 125.559 39.8243 125.266 39.638C124.974 39.4516 124.758 39.2191 124.62 38.9403C124.483 38.6596 124.432 38.3447 124.468 37.9957L125.338 38.1335C125.322 38.3438 125.362 38.5275 125.458 38.6846C125.556 38.8401 125.692 38.9662 125.867 39.0628C126.043 39.1579 126.243 39.2231 126.466 39.2584C126.711 39.2972 126.935 39.2934 127.138 39.2469C127.343 39.1988 127.511 39.1143 127.644 38.9934C127.776 38.8706 127.857 38.7156 127.887 38.5286C127.914 38.3584 127.887 38.2113 127.807 38.0874C127.729 37.9638 127.613 37.8534 127.46 37.7562C127.308 37.6594 127.134 37.5675 126.937 37.4807L126.287 37.188C125.847 36.9897 125.511 36.7477 125.28 36.4619C125.051 36.1763 124.969 35.8334 125.032 35.4331C125.085 35.102 125.22 34.8272 125.439 34.6087C125.657 34.3902 125.931 34.237 126.259 34.149C126.588 34.0592 126.945 34.0448 127.331 34.1058C127.72 34.1675 128.052 34.2901 128.328 34.4738C128.606 34.6577 128.811 34.8831 128.946 35.1497C129.08 35.4146 129.127 35.7019 129.085 36.0117L128.249 35.8793ZM130.868 40.7265C130.451 40.6605 130.107 40.5091 129.835 40.2725C129.566 40.0343 129.378 39.735 129.27 39.3747C129.162 39.0144 129.143 38.6181 129.211 38.186C129.28 37.7483 129.424 37.3751 129.641 37.0663C129.859 36.7556 130.133 36.5296 130.462 36.388C130.791 36.2465 131.159 36.2079 131.565 36.2722C131.892 36.324 132.174 36.431 132.411 36.5932C132.649 36.7535 132.829 36.9546 132.952 37.1965C133.076 37.4387 133.131 37.7071 133.115 38.0018L132.298 37.8725C132.285 37.6633 132.21 37.4731 132.072 37.3017C131.936 37.1306 131.734 37.0239 131.467 36.9815C131.233 36.9445 131.019 36.9737 130.823 37.0694C130.63 37.1634 130.467 37.3159 130.334 37.5268C130.201 37.7359 130.11 37.9938 130.061 38.3006C130.012 38.6149 130.016 38.8937 130.076 39.137C130.135 39.3803 130.242 39.5784 130.396 39.7313C130.552 39.8845 130.749 39.9799 130.986 40.0175C131.145 40.0427 131.294 40.0365 131.432 39.999C131.572 39.9599 131.695 39.8921 131.801 39.7956C131.908 39.6995 131.992 39.5766 132.052 39.427L132.868 39.5563C132.794 39.8303 132.664 40.0647 132.478 40.2596C132.292 40.4544 132.062 40.5944 131.787 40.6794C131.515 40.7647 131.208 40.7805 130.868 40.7265ZM134.399 38.5734L133.993 41.1324L133.154 40.9995L134.065 35.2529L134.892 35.3841L134.554 37.5222L134.607 37.5306C134.745 37.3147 134.928 37.1548 135.158 37.0512C135.387 36.9475 135.669 36.9222 136.004 36.9752C136.299 37.022 136.548 37.1237 136.749 37.2803C136.953 37.4371 137.096 37.6458 137.179 37.9064C137.265 38.1654 137.279 38.4745 137.222 38.8336L136.788 41.575L135.949 41.4421L136.367 38.8018C136.417 38.4856 136.375 38.2277 136.24 38.0279C136.105 37.8263 135.892 37.7026 135.602 37.6566C135.404 37.6252 135.22 37.6392 135.049 37.6985C134.881 37.758 134.739 37.8621 134.623 38.0106C134.51 38.1576 134.435 38.3452 134.399 38.5734ZM139.356 42.071C138.932 42.0037 138.58 41.8551 138.302 41.625C138.027 41.3934 137.832 41.0989 137.718 40.7414C137.606 40.3823 137.585 39.9793 137.656 39.5322C137.726 39.0907 137.87 38.7147 138.088 38.404C138.308 38.0937 138.581 37.8676 138.908 37.7258C139.238 37.5843 139.602 37.5452 140.003 37.6086C140.246 37.6471 140.475 37.7247 140.691 37.8413C140.906 37.9578 141.091 38.1165 141.245 38.3174C141.399 38.5182 141.507 38.7644 141.568 39.056C141.63 39.3457 141.63 39.686 141.568 40.077L141.521 40.3744L138.095 39.8318L138.194 39.2033L140.798 39.6157C140.833 39.3949 140.819 39.1924 140.756 39.0079C140.694 38.8216 140.589 38.666 140.442 38.541C140.297 38.4164 140.116 38.3369 139.899 38.3026C139.663 38.2652 139.448 38.2906 139.254 38.3788C139.062 38.4653 138.903 38.5936 138.779 38.7637C138.656 38.9322 138.578 39.124 138.544 39.3392L138.466 39.8302C138.42 40.1183 138.432 40.3713 138.501 40.5893C138.572 40.8077 138.69 40.9847 138.857 41.1203C139.024 41.2541 139.23 41.3404 139.475 41.3792C139.634 41.4044 139.782 41.4049 139.92 41.3808C140.059 41.3547 140.183 41.3034 140.293 41.2269C140.403 41.1503 140.493 41.0487 140.565 40.922L141.337 41.1909C141.236 41.4147 141.089 41.6014 140.897 41.7512C140.707 41.8994 140.48 42.0026 140.218 42.0607C139.958 42.1173 139.671 42.1207 139.356 42.071ZM143.355 42.7014C143.007 42.6463 142.711 42.5083 142.466 42.2873C142.223 42.0648 142.05 41.7757 141.947 41.42C141.847 41.0627 141.833 40.6512 141.907 40.1854C141.981 39.7196 142.122 39.3335 142.329 39.0269C142.539 38.7207 142.794 38.5013 143.095 38.3688C143.396 38.2362 143.72 38.1973 144.066 38.2521C144.333 38.2945 144.541 38.3734 144.69 38.489C144.84 38.603 144.951 38.726 145.022 38.8581C145.095 38.9905 145.15 39.1055 145.186 39.2033L145.237 39.2113L145.575 37.076L146.414 37.2089L145.504 42.9554L144.684 42.8257L144.791 42.1551L144.721 42.1439C144.656 42.2276 144.566 42.3208 144.452 42.4235C144.34 42.5266 144.194 42.609 144.016 42.6709C143.837 42.7327 143.617 42.7429 143.355 42.7014ZM143.654 42.0152C143.895 42.0535 144.109 42.0221 144.296 41.9213C144.484 41.8189 144.64 41.6604 144.762 41.4458C144.886 41.2315 144.972 40.9729 145.02 40.6698C145.068 40.3705 145.066 40.1018 145.016 39.8637C144.965 39.6256 144.866 39.4307 144.72 39.279C144.573 39.1273 144.377 39.0321 144.132 38.9932C143.88 38.9532 143.659 38.9854 143.47 39.0897C143.281 39.1939 143.125 39.3524 143.003 39.5652C142.883 39.7782 142.801 40.0268 142.756 40.3112C142.71 40.5993 142.712 40.8652 142.762 41.1089C142.811 41.3526 142.91 41.5551 143.057 41.7165C143.206 41.8762 143.405 41.9758 143.654 42.0152ZM149.319 41.7276L149.719 39.205L150.561 39.3384L149.878 43.6483L149.053 43.5176L149.171 42.7712L149.126 42.7641C148.991 42.9785 148.802 43.1451 148.558 43.2638C148.317 43.3809 148.035 43.4139 147.711 43.3626C147.435 43.3188 147.199 43.2192 147.005 43.0638C146.813 42.9069 146.676 42.6981 146.592 42.4375C146.511 42.1773 146.498 41.8694 146.555 41.514L146.989 38.7726L147.828 38.9055L147.41 41.5459C147.363 41.8396 147.407 42.0863 147.543 42.286C147.678 42.4858 147.875 42.6062 148.135 42.6474C148.293 42.6723 148.455 42.6578 148.623 42.6038C148.792 42.5501 148.941 42.4519 149.069 42.3092C149.199 42.1668 149.282 41.9729 149.319 41.7276ZM152.359 38.1506L151.449 43.8971L150.61 43.7642L151.52 38.0177L152.359 38.1506ZM154.027 44.3945C153.602 44.3272 153.251 44.1786 152.973 43.9486C152.697 43.7169 152.502 43.4224 152.388 43.0649C152.276 42.7059 152.255 42.3028 152.326 41.8557C152.396 41.4143 152.54 41.0382 152.758 40.7276C152.978 40.4172 153.251 40.1912 153.579 40.0493C153.908 39.9078 154.273 39.8687 154.673 39.9321C154.916 39.9707 155.146 40.0482 155.361 40.1648C155.576 40.2814 155.761 40.4401 155.916 40.6409C156.07 40.8418 156.177 41.088 156.239 41.3795C156.3 41.6692 156.3 42.0096 156.238 42.4005L156.191 42.698L152.765 42.1553L152.864 41.5268L155.468 41.9392C155.503 41.7185 155.489 41.5159 155.426 41.3314C155.364 41.1451 155.259 40.9895 155.112 40.8646C154.967 40.74 154.786 40.6605 154.569 40.6261C154.333 40.5888 154.118 40.6142 153.924 40.7023C153.732 40.7889 153.574 40.9172 153.449 41.0872C153.326 41.2558 153.248 41.4476 153.214 41.6627L153.136 42.1537C153.09 42.4418 153.102 42.6949 153.171 42.9129C153.242 43.1312 153.361 43.3082 153.527 43.4439C153.694 43.5776 153.9 43.6639 154.145 43.7028C154.304 43.7279 154.452 43.7285 154.59 43.7043C154.729 43.6783 154.853 43.627 154.963 43.5504C155.073 43.4739 155.164 43.3723 155.235 43.2456L156.007 43.5145C155.906 43.7382 155.76 43.925 155.567 44.0747C155.377 44.2229 155.151 44.3261 154.888 44.3843C154.628 44.4409 154.341 44.4443 154.027 44.3945ZM160.816 40.9626L160.709 41.636L158.355 41.2632L158.462 40.5897L160.816 40.9626ZM159.257 39.6571L160.096 39.79L159.45 43.867C159.424 44.0298 159.429 44.1562 159.465 44.2462C159.5 44.3343 159.554 44.3994 159.626 44.4415C159.7 44.482 159.783 44.5095 159.875 44.524C159.942 44.5347 160.002 44.5394 160.054 44.538C160.106 44.5367 160.146 44.5354 160.175 44.5342L160.217 45.2513C160.166 45.2623 160.093 45.27 160.001 45.2745C159.908 45.2809 159.794 45.2743 159.659 45.2549C159.437 45.2236 159.238 45.1518 159.06 45.0392C158.882 44.9267 158.748 44.7751 158.657 44.5843C158.567 44.3935 158.542 44.1682 158.583 43.9081L159.257 39.6571ZM162.003 42.9455L161.598 45.5045L160.759 45.3716L161.669 39.625L162.497 39.7561L162.158 41.8943L162.211 41.9027C162.349 41.6868 162.533 41.5269 162.762 41.4233C162.991 41.3196 163.273 41.2943 163.608 41.3473C163.904 41.3941 164.152 41.4958 164.354 41.6524C164.557 41.8092 164.7 42.0179 164.784 42.2785C164.869 42.5375 164.884 42.8466 164.827 43.2057L164.393 45.9471L163.554 45.8142L163.972 43.1739C164.022 42.8577 163.979 42.5998 163.844 42.4C163.709 42.1984 163.497 42.0747 163.207 42.0287C163.009 41.9973 162.824 42.0113 162.654 42.0706C162.485 42.1301 162.343 42.2342 162.227 42.3827C162.114 42.5297 162.039 42.7173 162.003 42.9455ZM166.961 46.4431C166.536 46.3758 166.185 46.2271 165.907 45.9971C165.631 45.7655 165.436 45.471 165.322 45.1135C165.21 44.7544 165.189 44.3514 165.26 43.9043C165.33 43.4628 165.474 43.0868 165.692 42.7761C165.912 42.4658 166.185 42.2397 166.513 42.0979C166.842 41.9564 167.207 41.9173 167.607 41.9807C167.85 42.0192 168.08 42.0968 168.295 42.2134C168.511 42.3299 168.695 42.4886 168.85 42.6895C169.004 42.8903 169.111 43.1365 169.173 43.4281C169.234 43.7178 169.234 44.0581 169.172 44.4491L169.125 44.7465L165.699 44.2039L165.798 43.5754L168.402 43.9878C168.437 43.767 168.423 43.5644 168.361 43.38C168.298 43.1937 168.193 43.0381 168.046 42.9131C167.901 42.7885 167.72 42.709 167.503 42.6747C167.267 42.6373 167.052 42.6627 166.858 42.7509C166.666 42.8374 166.508 42.9657 166.383 43.1358C166.26 43.3043 166.182 43.4961 166.148 43.7113L166.07 44.2023C166.025 44.4904 166.036 44.7434 166.105 44.9614C166.176 45.1798 166.295 45.3568 166.461 45.4924C166.628 45.6262 166.834 45.7125 167.079 45.7513C167.238 45.7765 167.386 45.777 167.525 45.7529C167.663 45.7268 167.787 45.6755 167.897 45.599C168.007 45.5224 168.098 45.4208 168.17 45.2941L168.941 45.563C168.84 45.7868 168.694 45.9735 168.501 46.1233C168.311 46.2715 168.085 46.3747 167.822 46.4328C167.562 46.4894 167.275 46.4928 166.961 46.4431ZM170.799 48.6186L171.738 42.6925L172.557 42.8223L172.447 43.521L172.517 43.5321C172.58 43.45 172.666 43.3573 172.777 43.2539C172.887 43.1506 173.031 43.0679 173.207 43.0057C173.384 42.9417 173.606 42.9309 173.874 42.9733C174.222 43.0284 174.518 43.1655 174.764 43.3846C175.009 43.6037 175.183 43.8911 175.286 44.2467C175.39 44.6027 175.406 45.0136 175.332 45.4794C175.258 45.9452 175.118 46.3323 174.91 46.6407C174.702 46.9472 174.448 47.1687 174.148 47.3053C173.849 47.4401 173.525 47.4799 173.177 47.4248C172.916 47.3833 172.708 47.3054 172.556 47.1912C172.405 47.0772 172.292 46.9538 172.217 46.8212C172.143 46.6885 172.087 46.5723 172.051 46.4727L172.001 46.4647L171.638 48.7515L170.799 48.6186ZM172.219 44.9777C172.171 45.2807 172.173 45.5533 172.225 45.7955C172.276 46.0376 172.375 46.2364 172.521 46.3918C172.668 46.5454 172.861 46.6413 173.103 46.6795C173.353 46.7192 173.573 46.686 173.763 46.5798C173.953 46.4718 174.109 46.3096 174.231 46.0931C174.356 45.877 174.44 45.6248 174.486 45.3368C174.531 45.0524 174.529 44.7903 174.478 44.5503C174.43 44.3106 174.331 44.1118 174.182 43.9539C174.034 43.7963 173.834 43.6975 173.581 43.6575C173.338 43.619 173.123 43.6491 172.934 43.7478C172.748 43.8467 172.594 44.0016 172.472 44.2125C172.351 44.4233 172.266 44.6784 172.219 44.9777ZM177.339 48.0868C176.935 48.0228 176.597 47.8743 176.325 47.6414C176.053 47.4085 175.86 47.1124 175.747 46.7531C175.633 46.3938 175.611 45.9915 175.682 45.5463C175.753 45.0992 175.898 44.7214 176.117 44.4129C176.337 44.1045 176.612 43.8815 176.942 43.744C177.273 43.6065 177.64 43.5698 178.044 43.6338C178.448 43.6978 178.786 43.8462 179.058 44.0791C179.33 44.312 179.522 44.609 179.636 44.9702C179.749 45.3314 179.771 45.7356 179.7 46.1827C179.629 46.6279 179.484 47.0038 179.265 47.3104C179.046 47.617 178.771 47.839 178.441 47.9765C178.11 48.114 177.743 48.1508 177.339 48.0868ZM177.453 47.3829C177.715 47.4244 177.943 47.3896 178.137 47.2784C178.331 47.1672 178.487 47.0031 178.606 46.7861C178.727 46.5693 178.809 46.3225 178.853 46.0457C178.896 45.7707 178.894 45.5115 178.847 45.2681C178.801 45.0231 178.703 44.8168 178.553 44.6492C178.404 44.4817 178.198 44.3772 177.936 44.3357C177.672 44.2939 177.442 44.3294 177.246 44.4421C177.052 44.5552 176.894 44.721 176.773 44.9396C176.654 45.1567 176.573 45.4027 176.53 45.6777C176.486 45.9545 176.487 46.2145 176.533 46.4576C176.58 46.7011 176.679 46.9056 176.829 47.0713C176.981 47.2373 177.189 47.3411 177.453 47.3829ZM183.649 45.6576L182.867 45.6718C182.85 45.5695 182.815 45.4689 182.759 45.37C182.706 45.2714 182.626 45.1849 182.519 45.1104C182.411 45.0359 182.271 44.9849 182.097 44.9574C181.859 44.9197 181.653 44.9416 181.477 45.0231C181.301 45.1027 181.2 45.2257 181.174 45.3922C181.151 45.5362 181.186 45.6606 181.279 45.7654C181.371 45.8702 181.532 45.9695 181.761 46.0633L182.421 46.3288C182.803 46.4833 183.076 46.6714 183.24 46.893C183.404 47.1146 183.462 47.3778 183.414 47.6828C183.373 47.9409 183.262 48.1591 183.08 48.3375C182.901 48.5142 182.669 48.6386 182.386 48.7106C182.104 48.783 181.789 48.7916 181.441 48.7365C180.958 48.66 180.581 48.4948 180.308 48.2407C180.036 47.9848 179.896 47.6605 179.887 47.268L180.718 47.273C180.735 47.4923 180.813 47.6687 180.953 47.8021C181.093 47.9336 181.29 48.0194 181.542 48.0594C181.817 48.1029 182.046 48.0807 182.229 47.9926C182.412 47.9027 182.517 47.7745 182.543 47.6081C182.564 47.4734 182.532 47.3522 182.445 47.2445C182.361 47.1372 182.219 47.0438 182.021 46.9645L181.316 46.689C180.929 46.5336 180.655 46.3406 180.494 46.1099C180.334 45.8795 180.279 45.611 180.328 45.3042C180.368 45.0498 180.474 44.8384 180.647 44.6701C180.819 44.5019 181.039 44.3843 181.307 44.3173C181.575 44.2485 181.87 44.2398 182.194 44.291C182.66 44.3648 183.01 44.5239 183.246 44.7683C183.482 45.0108 183.616 45.3072 183.649 45.6576ZM186.439 45.0209L186.332 45.6943L183.978 45.3214L184.084 44.648L186.439 45.0209ZM184.879 43.7154L185.718 43.8483L185.073 47.9253C185.047 48.088 185.052 48.2144 185.087 48.3044C185.123 48.3926 185.177 48.4577 185.249 48.4998C185.323 48.5403 185.406 48.5678 185.498 48.5823C185.565 48.593 185.625 48.5976 185.677 48.5963C185.729 48.5949 185.769 48.5936 185.798 48.5925L185.84 49.3095C185.788 49.3205 185.716 49.3283 185.623 49.3328C185.53 49.3391 185.416 49.3326 185.281 49.3131C185.06 49.2819 184.86 49.21 184.683 49.0975C184.505 48.985 184.371 48.8333 184.28 48.6426C184.19 48.4518 184.165 48.2264 184.206 47.9664L184.879 43.7154ZM190.719 45.6988L190.612 46.3722L188.177 45.9864L188.283 45.313L190.719 45.6988ZM188.268 49.7287L189.03 44.9193C189.073 44.65 189.167 44.4358 189.313 44.2767C189.459 44.1158 189.637 44.0068 189.845 43.9497C190.054 43.8907 190.273 43.8793 190.501 43.9154C190.669 43.9421 190.811 43.9789 190.926 44.026C191.042 44.0711 191.127 44.1095 191.181 44.1411L190.877 44.7891C190.84 44.7716 190.791 44.7505 190.732 44.7258C190.673 44.6992 190.599 44.6789 190.512 44.665C190.308 44.6327 190.154 44.6601 190.05 44.7472C189.948 44.8345 189.882 44.9736 189.851 45.1644L189.107 49.8616L188.268 49.7287ZM192.139 50.4308C191.735 50.3668 191.397 50.2184 191.125 49.9855C190.853 49.7526 190.66 49.4565 190.546 49.0972C190.433 48.7378 190.411 48.3355 190.482 47.8903C190.552 47.4433 190.698 47.0655 190.917 46.757C191.137 46.4485 191.412 46.2256 191.742 46.0881C192.073 45.9506 192.44 45.9138 192.844 45.9778C193.248 46.0418 193.586 46.1903 193.858 46.4232C194.13 46.6561 194.322 46.9531 194.436 47.3143C194.549 47.6755 194.571 48.0797 194.5 48.5267C194.429 48.972 194.284 49.3479 194.065 49.6545C193.846 49.9611 193.571 50.1831 193.241 50.3206C192.91 50.4581 192.543 50.4948 192.139 50.4308ZM192.253 49.727C192.515 49.7685 192.743 49.7336 192.937 49.6225C193.131 49.5113 193.287 49.3472 193.406 49.1301C193.527 48.9134 193.609 48.6666 193.653 48.3897C193.696 48.1147 193.694 47.8555 193.646 47.6121C193.601 47.3671 193.503 47.1609 193.353 46.9933C193.203 46.8257 192.998 46.7212 192.736 46.6798C192.472 46.638 192.242 46.6735 192.046 46.7862C191.851 46.8992 191.694 47.0651 191.573 47.2837C191.454 47.5008 191.373 47.7468 191.329 48.0217C191.286 48.2986 191.287 48.5586 191.332 48.8017C191.38 49.0451 191.479 49.2497 191.629 49.4154C191.781 49.5813 191.989 49.6852 192.253 49.727ZM194.703 50.7478L195.386 46.4379L196.196 46.5663L196.088 47.251L196.133 47.2581C196.248 47.0386 196.416 46.8781 196.635 46.7767C196.856 46.6737 197.093 46.6422 197.346 46.6822C197.398 46.6905 197.46 46.7022 197.53 46.7172C197.603 46.7325 197.659 46.7462 197.699 46.7583L197.572 47.5608C197.54 47.5461 197.482 47.5264 197.397 47.5015C197.313 47.4748 197.228 47.4546 197.142 47.441C196.944 47.4096 196.761 47.4237 196.592 47.4832C196.426 47.5413 196.286 47.637 196.173 47.7706C196.06 47.9023 195.988 48.0617 195.959 48.2487L195.542 50.8807L194.703 50.7478Z" fill="black"/>
</g>
<path d="M266.362 70.8965L51.9995 36.9448L25.6053 203.591L239.968 237.543L266.362 70.8965Z" fill="white"/>
<g opacity="0.24">
<path d="M87.9004 64.5328C87.0787 64.4027 86.6959 63.8198 86.7543 63.1317L86.7584 63.0851L87.35 63.1788L87.3481 63.2122C87.3275 63.5762 87.5135 63.9122 87.9835 63.9866C88.5093 64.0699 88.8414 63.8025 88.933 63.224L89.4744 59.8059L90.066 59.8996L89.5236 63.3243C89.3815 64.2216 88.7778 64.6718 87.9004 64.5328ZM91.5873 65.0662C90.782 64.9387 90.4429 64.3998 90.5756 63.5617L90.939 61.2675L91.5108 61.3581L91.1693 63.5142C91.0683 64.1518 91.2501 64.494 91.8153 64.5835C92.4398 64.6824 92.8322 64.3537 92.9305 63.7325L93.2627 61.6356L93.8346 61.7262L93.2734 65.2692L92.7015 65.1786L92.7853 64.6495L92.7327 64.6412C92.4987 64.9915 92.1066 65.1485 91.5873 65.0662ZM95.7364 65.7234C94.7241 65.563 94.2253 64.7563 94.4012 63.6454L94.4017 63.6421C94.5751 62.5476 95.3182 61.8972 96.2812 62.0497C97.2442 62.2022 97.7157 63.0114 97.5481 64.0697L97.5127 64.2932L94.9623 63.8892C94.8626 64.6248 95.1992 65.1161 95.8302 65.216C96.3101 65.292 96.6418 65.112 96.771 64.9135L96.7888 64.8861L97.3607 64.9766L97.3499 65.0019C97.1523 65.4625 96.5712 65.8556 95.7364 65.7234ZM96.1972 62.5586C95.6714 62.4753 95.2136 62.7701 95.0444 63.4339L97.0034 63.7442C97.055 63.0347 96.7198 62.6414 96.1972 62.5586Z" fill="#181818" fill-opacity="0.48"/>
<path d="M154.048 74.8949L154.695 70.8096L154.641 70.8011L153.297 71.4844L153.396 70.8599L154.801 70.1527L155.39 70.2459L154.639 74.9885L154.048 74.8949ZM156.165 75.2303L158.955 71.4001L158.962 71.3541L156.425 70.9522L156.509 70.4231L159.647 70.9202L159.56 71.4691L156.786 75.3287L156.165 75.2303Z" fill="#181818" fill-opacity="0.48"/>
<path d="M208.423 83.588C207.444 83.4328 206.896 82.7868 206.952 82.0275L206.955 81.9876L207.524 82.0777L207.521 82.111C207.494 82.5851 207.874 82.9754 208.505 83.0753C209.126 83.1737 209.605 82.8925 209.685 82.3897L209.686 82.3831C209.778 81.8014 209.412 81.4097 208.748 81.3046L208.153 81.2104L208.232 80.7109L208.801 80.8009C209.366 80.8904 209.815 80.6045 209.89 80.1312L209.891 80.1246C209.97 79.6283 209.69 79.2909 209.112 79.1993C208.553 79.1108 208.109 79.3436 207.983 79.8156L207.974 79.8479L207.406 79.7579L207.414 79.7256C207.613 78.9652 208.305 78.5459 209.193 78.6865C210.096 78.8297 210.612 79.4268 210.498 80.1466L210.497 80.1531C210.404 80.7382 209.926 81.0735 209.315 81.1047L209.313 81.1179C209.994 81.2863 210.396 81.7914 210.289 82.4651L210.288 82.4717C210.163 83.2638 209.373 83.7385 208.423 83.588ZM211.981 80.7722C211.747 80.7352 211.584 80.5106 211.621 80.2773C211.659 80.0406 211.882 79.8807 212.116 79.9177C212.353 79.9552 212.512 80.1759 212.475 80.4125C212.438 80.6459 212.217 80.8097 211.981 80.7722ZM211.578 83.3161C211.344 83.279 211.181 83.0545 211.218 82.8212C211.256 82.5845 211.479 82.4245 211.713 82.4616C211.95 82.499 212.11 82.7197 212.072 82.9564C212.035 83.1897 211.814 83.3536 211.578 83.3161ZM214.528 84.5886C213.479 84.4225 213.006 83.3672 213.248 81.8421L213.249 81.8356C213.49 80.3105 214.265 79.4562 215.314 79.6223C216.362 79.7883 216.842 80.8414 216.601 82.3665L216.6 82.373C216.358 83.8981 215.576 84.7546 214.528 84.5886ZM214.609 84.0726C215.289 84.1803 215.813 83.4884 216.005 82.2788L216.006 82.2723C216.198 81.0627 215.912 80.2493 215.232 80.1416C214.551 80.0338 214.035 80.7202 213.843 81.9297L213.842 81.9362C213.651 83.1458 213.929 83.9648 214.609 84.0726ZM218.726 85.2535C217.678 85.0875 217.204 84.0321 217.446 82.507L217.447 82.5005C217.688 80.9754 218.464 80.1212 219.512 80.2872C220.561 80.4532 221.041 81.5065 220.8 83.0316L220.799 83.0381C220.557 84.5631 219.774 85.4195 218.726 85.2535ZM218.808 84.7375C219.488 84.8453 220.012 84.1533 220.203 82.9437L220.204 82.9372C220.396 81.7277 220.111 80.9144 219.43 80.8066C218.749 80.6987 218.234 81.3852 218.042 82.5948L218.041 82.6013C217.85 83.8109 218.127 84.6297 218.808 84.7375ZM222.904 85.8006L225.403 81.3349L225.988 81.4276L226.986 86.4472L226.365 86.3488L226.103 84.916L224.217 84.6172L223.525 85.8991L222.904 85.8006ZM225.549 82.1429L224.47 84.1419L226.008 84.3855L225.601 82.1512L225.549 82.1429ZM227.776 86.5723L228.527 81.8297L229.214 81.9384L230.211 86.1528L230.263 86.1611L232.514 82.4612L233.201 82.5699L232.45 87.3126L231.897 87.2251L232.471 83.6031L232.435 83.5974L230.363 86.982L229.863 86.9028L228.938 83.0436L228.902 83.0379L228.328 86.6598L227.776 86.5723Z" fill="#181818" fill-opacity="0.48"/>
</g>
<path d="M84.1473 79.4568C83.1992 79.3066 82.7576 78.6341 82.825 77.8401L82.8297 77.7864L83.5123 77.8945L83.5101 77.9331C83.4863 78.3531 83.7009 78.7408 84.2432 78.8267C84.85 78.9228 85.2332 78.6141 85.339 77.9467L85.9636 74.0027L86.6463 74.1108L86.0204 78.0624C85.8564 79.0978 85.1599 79.6172 84.1473 79.4568ZM88.325 80.0602C87.3959 79.9131 87.0046 79.2913 87.1577 78.3242L87.577 75.6771L88.2368 75.7816L87.8428 78.2694C87.7263 79.0052 87.9359 79.3999 88.5882 79.5032C89.3087 79.6174 89.7614 79.2381 89.875 78.5213L90.2582 76.1018L90.918 76.2063L90.2705 80.2945L89.6107 80.19L89.7074 79.5794L89.6467 79.5698C89.3767 79.9741 88.9242 80.1551 88.325 80.0602ZM91.4167 80.476L92.3213 74.7647L92.9812 74.8692L92.0766 80.5806L91.4167 80.476ZM93.3408 82.2502C93.2536 82.2364 93.141 82.2109 93.0524 82.1812L93.1383 81.6389C93.2155 81.6667 93.3173 81.6867 93.4083 81.7011C93.7838 81.7606 94.0384 81.6259 94.2607 81.1791L94.375 80.9485L93.5099 76.6168L94.2154 76.7286L94.8051 80.2702L94.8658 80.2798L96.5173 77.0931L97.2113 77.2031L94.9276 81.2886C94.4447 82.1529 94.0651 82.3649 93.3408 82.2502Z" fill="#181818" fill-opacity="0.48"/>
<path d="M151.149 89.9367L151.896 85.2227L151.835 85.2131L150.283 86.0014L150.397 85.2809L152.02 84.4649L152.698 84.5723L151.832 90.0448L151.149 89.9367ZM155.144 90.6626C153.983 90.4788 153.26 89.6956 153.405 88.7778L153.406 88.7702C153.513 88.0952 154.077 87.6092 154.804 87.5571L154.806 87.5419C154.237 87.2613 153.93 86.7461 154.021 86.1697L154.022 86.1621C154.153 85.3353 155.005 84.8444 156.039 85.0083C157.075 85.1723 157.733 85.9024 157.602 86.7291L157.601 86.7367C157.51 87.3131 157.058 87.7082 156.429 87.799L156.427 87.8142C157.103 88.0884 157.488 88.7247 157.381 89.3997L157.38 89.4073C157.234 90.3251 156.305 90.8465 155.144 90.6626ZM155.658 87.4164C156.318 87.521 156.829 87.217 156.913 86.6861L156.914 86.6785C156.998 86.1475 156.607 85.7007 155.946 85.5961C155.287 85.4916 154.776 85.7956 154.692 86.3265L154.691 86.3341C154.607 86.865 154.998 87.3119 155.658 87.4164ZM155.238 90.0672C155.993 90.1868 156.599 89.8474 156.693 89.2558L156.694 89.2482C156.789 88.6491 156.322 88.1358 155.563 88.0155C154.805 87.8954 154.202 88.2394 154.107 88.8385L154.106 88.8461C154.012 89.4377 154.484 89.9477 155.238 90.0672Z" fill="#181818" fill-opacity="0.48"/>
<path d="M204.526 98.484C203.396 98.305 202.764 97.5597 202.829 96.6835L202.833 96.6375L203.489 96.7414L203.486 96.7798C203.454 97.3268 203.892 97.7771 204.62 97.8924C205.337 98.006 205.889 97.6814 205.981 97.1012L205.983 97.0936C206.089 96.4224 205.667 95.9707 204.901 95.8494L204.214 95.7406L204.306 95.1641L204.962 95.2681C205.615 95.3715 206.133 95.0415 206.219 94.4954L206.22 94.4878C206.311 93.9152 205.988 93.5259 205.321 93.4202C204.676 93.318 204.163 93.5867 204.018 94.1312L204.009 94.1686L203.353 94.0647L203.363 94.0274C203.591 93.15 204.39 92.6663 205.415 92.8286C206.457 92.9937 207.052 93.6826 206.92 94.5131L206.919 94.5207C206.812 95.1958 206.261 95.5827 205.556 95.6187L205.553 95.6339C206.339 95.8283 206.802 96.4109 206.679 97.1884L206.678 97.196C206.533 98.1099 205.622 98.6576 204.526 98.484ZM208.554 95.2229C208.285 95.1803 208.097 94.9211 208.14 94.6518C208.183 94.3788 208.442 94.1943 208.71 94.2369C208.984 94.2802 209.169 94.5349 209.125 94.8079C209.083 95.0772 208.828 95.2662 208.554 95.2229ZM208.089 98.1581C207.821 98.1156 207.632 97.8564 207.675 97.5872C207.718 97.3141 207.977 97.1296 208.245 97.1721C208.519 97.2154 208.704 97.4702 208.66 97.7433C208.618 98.0125 208.363 98.2014 208.089 98.1581ZM211.417 99.6142C210.207 99.4227 209.661 98.2049 209.939 96.4453L209.941 96.4377C210.219 94.678 211.115 93.6925 212.324 93.8841C213.534 94.0757 214.088 95.2908 213.81 97.0504L213.808 97.058C213.53 98.8177 212.627 99.8059 211.417 99.6142ZM211.511 99.0188C212.296 99.1432 212.901 98.3449 213.122 96.9493L213.123 96.9417C213.344 95.5461 213.015 94.6076 212.229 94.4832C211.445 94.3589 210.848 95.1508 210.627 96.5464L210.626 96.554C210.405 97.9496 210.726 98.8946 211.511 99.0188ZM216.185 100.369C214.975 100.178 214.429 98.9601 214.708 97.2005L214.709 97.1929C214.988 95.4333 215.882 94.4476 217.093 94.6393C218.302 94.8308 218.856 96.0459 218.577 97.8055L218.576 97.8131C218.297 99.5727 217.394 100.561 216.185 100.369ZM216.279 99.7741C217.064 99.8983 217.668 99.1 217.889 97.7044L217.89 97.6968C218.111 96.3012 217.782 95.3627 216.998 95.2384C216.212 95.114 215.617 95.906 215.396 97.3016L215.394 97.3092C215.173 98.7049 215.494 99.6497 216.279 99.7741ZM220.852 100.977L223.736 95.8237L224.412 95.9307L225.562 101.723L224.846 101.609L224.544 99.9557L222.367 99.6109L221.569 101.09L220.852 100.977ZM223.904 96.756L222.66 99.0625L224.435 99.3437L223.965 96.7657L223.904 96.756ZM226.397 101.855L227.264 96.3824L228.057 96.508L229.207 101.371L229.268 101.38L231.864 97.111L232.657 97.2366L231.791 102.709L231.153 102.608L231.815 98.4288L231.774 98.4223L229.382 102.328L228.806 102.236L227.738 97.7831L227.697 97.7766L227.035 101.956L226.397 101.855Z" fill="#181818" fill-opacity="0.48"/>
<path d="M71.8074 94.6025L75.4849 88.0792L76.3399 88.2146L77.8168 95.5543L76.9089 95.4105L76.5218 93.3156L73.7309 92.8736L72.7153 94.7463L71.8074 94.6025ZM75.7384 89.183L74.1116 92.1798L76.3788 92.5389L75.7577 89.1861L75.7384 89.183ZM80.2271 96.0348C79.1319 95.8613 78.6105 95.0498 78.7908 93.9113L79.3044 90.6683L80.1403 90.8007L79.6503 93.8942C79.5216 94.7067 79.8303 95.2136 80.5989 95.3353C81.3867 95.4601 81.9898 94.979 82.1245 94.1286L82.5901 91.1887L83.426 91.3211L82.6347 96.3174L81.7988 96.185L81.9114 95.4739L81.8922 95.4709C81.5494 95.8945 80.9861 96.155 80.2271 96.0348ZM85.754 98.633C84.5195 98.4374 83.8333 97.7331 83.7871 96.9674L83.7844 96.9229L84.625 97.056L84.6374 97.1021C84.7388 97.4878 85.1795 97.7836 85.8616 97.8916C86.7406 98.0309 87.317 97.6252 87.4395 96.8516L87.5407 96.2131L87.5214 96.2101C87.1361 96.7153 86.5033 96.9795 85.7876 96.8661C84.529 96.6668 83.8297 95.5172 84.077 93.9556L84.0779 93.9505C84.3236 92.3991 85.3528 91.5284 86.6209 91.7293C87.3271 91.8411 87.8234 92.3136 88.0426 92.9197L88.0618 92.9228L88.1958 92.0765L89.0317 92.2089L88.2624 97.0659C88.079 98.2238 87.1086 98.8475 85.754 98.633ZM86.0874 96.1552C86.9376 96.2899 87.629 95.6557 87.8047 94.546L87.8055 94.5409C87.9797 93.4413 87.5125 92.6289 86.6671 92.495C85.7784 92.3542 85.1086 92.9762 84.9329 94.0859L84.9321 94.091C84.7526 95.2244 85.1986 96.0145 86.0874 96.1552ZM91.208 97.774C90.1127 97.6005 89.5913 96.789 89.7716 95.6505L90.2853 92.4075L91.121 92.5398L90.631 95.6334C90.5024 96.4459 90.8111 96.9528 91.5797 97.0745C92.3675 97.1993 92.9706 96.7182 93.1053 95.8677L93.5709 92.9279L94.4067 93.0602L93.6154 98.0566L92.7795 97.9242L92.8922 97.2131L92.873 97.2101C92.5302 97.6336 91.9669 97.8942 91.208 97.774ZM96.6599 98.6375C95.483 98.4511 94.8671 97.738 94.9078 96.8285L94.91 96.7838L95.7458 96.9162L95.7477 96.9659C95.7695 97.4818 96.093 97.8335 96.775 97.9415C97.4524 98.0488 97.9008 97.8289 97.9723 97.3779L97.9731 97.3729C98.0302 97.0122 97.8748 96.7807 97.33 96.5516L96.5678 96.2343C95.662 95.8597 95.2749 95.35 95.389 94.6296L95.3898 94.6245C95.526 93.7647 96.3767 93.2744 97.4576 93.4456C98.5528 93.6191 99.1483 94.3679 99.0782 95.2139L99.0732 95.2771L98.2757 95.1508L98.2763 95.1163C98.2858 94.6209 97.967 94.2397 97.3474 94.1415C96.7421 94.0457 96.321 94.2794 96.2509 94.7219L96.2503 94.7261C96.1962 95.0673 96.3846 95.3387 96.9158 95.5605L97.6779 95.8786C98.6478 96.2833 98.9498 96.7397 98.8372 97.4509L98.8365 97.4551C98.6979 98.33 97.7743 98.814 96.6599 98.6375ZM101.29 99.3709C100.373 99.2256 99.9869 98.7402 100.138 97.785L100.618 94.7531L99.8883 94.6375L99.9978 93.9458L100.728 94.0614L100.942 92.712L101.806 92.849L101.593 94.1984L102.544 94.349L102.434 95.0407L101.483 94.8901L101.004 97.9169C100.919 98.4498 101.131 98.6358 101.578 98.7065C101.679 98.7225 101.777 98.7233 101.85 98.7305L101.742 99.4079C101.635 99.4055 101.454 99.3968 101.29 99.3709Z" fill="#181818" fill-opacity="0.48"/>
<path d="M147.771 106.634L148.724 100.62L148.704 100.617L146.668 101.604L146.805 100.734L148.86 99.7007L149.705 99.8346L148.607 106.766L147.771 106.634ZM154.119 100.415C155.396 100.618 156.611 101.716 156.204 104.286L156.202 104.296C155.833 106.63 154.623 107.837 152.927 107.568C151.75 107.382 150.977 106.57 150.906 105.525L150.902 105.461L151.781 105.6L151.792 105.655C151.907 106.26 152.346 106.694 153.057 106.806C154.349 107.011 155.057 105.837 155.326 104.388C155.338 104.341 155.346 104.293 155.354 104.241L155.336 104.238C154.96 104.808 154.169 105.195 153.228 105.046C151.907 104.836 151.082 103.707 151.29 102.39L151.292 102.381C151.508 101.016 152.701 100.191 154.119 100.415ZM153.496 104.311C154.404 104.455 155.194 103.919 155.334 103.036L155.335 103.031C155.475 102.142 154.895 101.326 154.006 101.185C153.123 101.046 152.311 101.626 152.173 102.5L152.171 102.51C152.028 103.413 152.584 104.166 153.496 104.311Z" fill="#181818" fill-opacity="0.48"/>
<path d="M199.663 114.853L199.891 113.411L196.408 112.86L196.532 112.077L200.319 107.851L201.596 108.053L200.846 112.785L201.827 112.94L201.707 113.699L200.726 113.543L200.498 114.985L199.663 114.853ZM197.384 112.237L200.011 112.653L200.643 108.661L200.615 108.656L197.387 112.217L197.384 112.237ZM203.762 110.602C203.455 110.553 203.253 110.276 203.302 109.968C203.351 109.661 203.628 109.459 203.936 109.507C204.243 109.556 204.446 109.834 204.397 110.142C204.349 110.449 204.07 110.651 203.762 110.602ZM203.174 114.321C202.866 114.272 202.664 113.993 202.713 113.686C202.762 113.378 203.04 113.177 203.347 113.225C203.654 113.274 203.857 113.552 203.808 113.859C203.76 114.167 203.481 114.369 203.174 114.321ZM207.219 116.167C205.625 115.915 204.896 114.387 205.245 112.187L205.246 112.176C205.595 109.976 206.759 108.753 208.354 109.005C209.948 109.258 210.687 110.783 210.338 112.983L210.337 112.993C209.988 115.193 208.814 116.42 207.219 116.167ZM207.339 115.413C208.395 115.581 209.192 114.594 209.467 112.855L209.469 112.845C209.744 111.106 209.29 109.932 208.233 109.764C207.177 109.597 206.392 110.575 206.116 112.314L206.115 112.324C205.839 114.063 206.282 115.246 207.339 115.413ZM213.382 117.143C211.787 116.891 211.059 115.363 211.407 113.163L211.409 113.153C211.757 110.952 212.922 109.729 214.516 109.981C216.112 110.234 216.85 111.759 216.502 113.959L216.5 113.969C216.152 116.169 214.977 117.396 213.382 117.143ZM213.501 116.389C214.559 116.557 215.355 115.57 215.63 113.831L215.632 113.821C215.907 112.082 215.453 110.908 214.396 110.74C213.34 110.573 212.554 111.551 212.279 113.29L212.277 113.3C212.002 115.039 212.445 116.222 213.501 116.389ZM218.919 117.903L222.597 111.38L223.452 111.515L224.929 118.855L224.021 118.711L223.634 116.616L220.843 116.174L219.827 118.047L218.919 117.903ZM222.85 112.483L221.223 115.48L223.491 115.839L222.87 112.486L222.85 112.483ZM225.923 119.012L227.021 112.08L228.02 112.238L229.497 118.46L229.525 118.465L232.853 113.004L233.852 113.162L232.754 120.094L231.946 119.966L232.795 114.61L232.766 114.605L229.703 119.611L228.974 119.495L227.607 113.788L227.578 113.784L226.73 119.14L225.923 119.012Z" fill="#181818" fill-opacity="0.48"/>
<path d="M242.577 127.235L57.2106 97.8763C54.9229 97.514 52.7746 99.0748 52.4123 101.363L50.0045 116.564C49.6422 118.852 51.203 121 53.4907 121.363L238.857 150.722C241.145 151.084 243.293 149.523 243.655 147.236L246.063 132.034C246.425 129.746 244.865 127.598 242.577 127.235Z" fill="#767680" fill-opacity="0.12"/>
<path d="M59.0932 113.812C57.291 113.527 56.2363 112.482 56.36 111.053L56.3677 110.969L57.5802 111.161L57.5799 111.235C57.5739 111.993 58.2406 112.571 59.3141 112.741C60.3876 112.911 61.1429 112.534 61.2618 111.784L61.2626 111.779C61.3648 111.133 60.9809 110.713 59.9556 110.311L59.1113 109.989C57.5901 109.407 56.9427 108.562 57.1312 107.372L57.1321 107.366C57.3544 105.999 58.7103 105.25 60.4067 105.519C62.0809 105.784 63.0822 106.878 62.9524 108.237L62.943 108.332L61.7305 108.14L61.7372 108.062C61.7441 107.299 61.1702 106.746 60.2191 106.596C59.2225 106.444 58.5136 106.815 58.4026 107.516L58.4017 107.522C58.3066 108.123 58.7045 108.562 59.6713 108.938L60.5211 109.26C62.1231 109.873 62.7284 110.659 62.5321 111.899L62.5311 111.905C62.2994 113.368 60.9954 114.114 59.0932 113.812ZM65.8126 114.859C64.0938 114.587 63.2395 113.249 63.5321 111.402L63.533 111.396C63.8228 109.567 65.0734 108.511 66.7142 108.77C68.355 109.03 69.175 110.369 68.8966 112.126L68.8323 112.533L64.6885 111.876C64.5356 112.986 65.0396 113.727 65.9963 113.879C66.7083 113.992 67.2391 113.7 67.4589 113.284L67.4826 113.243L68.6228 113.423L68.6021 113.482C68.2658 114.381 67.2309 115.084 65.8126 114.859ZM66.5639 109.755C65.7852 109.632 65.1008 110.065 64.8401 111.028L67.7768 111.493C67.837 110.465 67.3481 109.879 66.5639 109.755ZM69.2247 117.276L70.4599 109.477L71.6613 109.667L71.5017 110.675L71.5295 110.679C71.9901 110.039 72.7023 109.719 73.5366 109.851C75.0272 110.087 75.7989 111.407 75.5029 113.276L75.5021 113.281C75.2069 115.145 74.0588 116.165 72.5905 115.933C71.7617 115.801 71.1556 115.273 70.9182 114.539L70.8904 114.535L70.4261 117.466L69.2247 117.276ZM72.4261 114.846C73.3717 114.996 74.0829 114.322 74.2784 113.087L74.2792 113.082C74.4767 111.835 74.0022 110.979 73.0622 110.83C72.15 110.686 71.3853 111.374 71.1922 112.593L71.1914 112.598C70.9994 113.811 71.5195 114.703 72.4261 114.846ZM78.1892 116.819C77.0322 116.636 76.5535 116.059 76.7385 114.891L77.2698 111.537L76.4299 111.404L76.5815 110.447L77.4214 110.58L77.6627 109.056L78.8919 109.251L78.6505 110.774L79.7463 110.948L79.5948 111.905L78.499 111.731L77.9792 115.013C77.8849 115.609 78.1238 115.828 78.63 115.908C78.7579 115.929 78.8653 115.934 78.9561 115.938L78.8089 116.867C78.6664 116.867 78.4339 116.858 78.1892 116.819ZM82.3307 117.475C80.6119 117.203 79.7576 115.865 80.0501 114.018L80.051 114.012C80.3408 112.183 81.5915 111.127 83.2323 111.387C84.8731 111.647 85.6931 112.985 85.4147 114.743L85.3504 115.149L81.2066 114.492C81.0536 115.602 81.5577 116.344 82.5144 116.495C83.2264 116.608 83.7572 116.316 83.9771 115.9L84.0007 115.859L85.141 116.039L85.1202 116.098C84.7839 116.997 83.749 117.7 82.3307 117.475ZM83.082 112.371C82.3033 112.248 81.6189 112.682 81.3582 113.644L84.2949 114.109C84.3551 113.081 83.8662 112.496 83.082 112.371ZM86.0511 117.945L86.978 112.093L88.1794 112.284L88.0358 113.191L88.0635 113.195C88.4107 112.623 89.0702 112.311 89.8377 112.433C90.6443 112.561 91.1678 113.071 91.2851 113.842L91.3129 113.847C91.7261 113.182 92.4853 112.852 93.3196 112.984C94.4766 113.168 95.1115 114.055 94.9257 115.228L94.2887 119.25L93.0816 119.059L93.6727 115.327C93.7935 114.564 93.457 114.061 92.7451 113.948C92.0332 113.835 91.4536 114.29 91.3364 115.03L90.7567 118.691L89.5775 118.504L90.1828 114.682C90.2902 114.004 89.9307 113.502 89.2521 113.395C88.5402 113.282 87.9451 113.763 87.8252 114.52L87.2526 118.136L86.0511 117.945ZM98.7231 120.072C97.8832 119.939 97.2994 119.413 97.0629 118.675L97.035 118.67L96.8782 119.66L95.6769 119.47L96.9481 111.443L98.1495 111.633L97.6474 114.804L97.6752 114.808C98.1348 114.175 98.8683 113.863 99.6971 113.994C101.166 114.227 101.948 115.548 101.653 117.411L101.652 117.417C101.357 119.28 100.208 120.307 98.7231 120.072ZM98.5699 118.987C99.5155 119.137 100.226 118.468 100.423 117.223L100.424 117.217C100.62 115.982 100.152 115.121 99.206 114.971C98.2993 114.828 97.5291 115.515 97.337 116.728L97.3361 116.734C97.1432 117.952 97.6577 118.842 98.5699 118.987ZM104.778 121.031C103.059 120.759 102.205 119.421 102.497 117.574L102.498 117.568C102.788 115.738 104.039 114.682 105.68 114.942C107.32 115.202 108.14 116.54 107.862 118.298L107.798 118.704L103.654 118.048C103.501 119.158 104.005 119.899 104.962 120.05C105.674 120.163 106.205 119.872 106.424 119.455L106.448 119.414L107.588 119.595L107.568 119.654C107.231 120.553 106.196 121.255 104.778 121.031ZM105.529 115.927C104.751 115.803 104.066 116.237 103.805 117.199L106.742 117.664C106.802 116.637 106.314 116.051 105.529 115.927ZM108.498 121.501L109.425 115.649L110.627 115.839L110.468 116.841L110.496 116.845C110.793 116.191 111.351 115.84 112.018 115.946C112.19 115.973 112.336 116.025 112.428 116.056L112.251 117.174C112.163 117.12 111.956 117.059 111.722 117.022C110.949 116.899 110.391 117.33 110.252 118.203L109.7 121.691L108.498 121.501Z" fill="#181818"/>
<path d="M141.184 126.677L141.32 125.821L144.596 123.426C145.832 122.527 146.138 122.142 146.237 121.52L146.239 121.508C146.354 120.745 145.862 120.109 145.05 119.98C144.11 119.831 143.336 120.358 143.197 121.169L143.191 121.203L142.012 121.016L142.018 120.982C142.245 119.547 143.628 118.7 145.197 118.948C146.737 119.192 147.685 120.334 147.48 121.631L147.478 121.642C147.333 122.56 146.801 123.142 145.135 124.338L143.027 125.84L143.019 125.89L146.84 126.495L146.674 127.547L141.184 126.677ZM150.861 128.347C148.942 128.043 148.049 126.265 148.452 123.717L148.454 123.706C148.857 121.159 150.256 119.749 152.174 120.053C154.088 120.356 154.987 122.13 154.584 124.677L154.582 124.688C154.178 127.236 152.775 128.65 150.861 128.347ZM151.026 127.306C152.166 127.487 153.02 126.414 153.325 124.489L153.327 124.478C153.632 122.554 153.149 121.28 152.009 121.099C150.864 120.918 150.016 121.982 149.712 123.905L149.71 123.916C149.405 125.841 149.88 127.125 151.026 127.306Z" fill="#181818"/>
<path d="M192.794 134.988C191.186 134.734 190.223 133.583 190.321 132.242L190.326 132.174L191.517 132.363L191.515 132.408C191.506 133.148 192.074 133.808 192.97 133.95C193.982 134.11 194.8 133.522 194.957 132.526L194.959 132.514C195.109 131.529 194.513 130.723 193.517 130.565C193.023 130.486 192.572 130.563 192.203 130.801C192.032 130.905 191.879 131.04 191.746 131.202L190.655 131.029L191.784 126.464L196.567 127.221L196.401 128.273L192.624 127.675L191.976 130.178L192.004 130.182C192.451 129.7 193.168 129.5 193.957 129.625C195.493 129.868 196.424 131.15 196.181 132.685L196.179 132.696C195.921 134.326 194.524 135.262 192.794 134.988ZM198.463 130.242C198.052 130.177 197.781 129.803 197.846 129.392C197.91 128.985 198.284 128.714 198.695 128.779C199.101 128.843 199.373 129.217 199.309 129.623C199.243 130.035 198.87 130.306 198.463 130.242ZM197.802 134.419C197.391 134.354 197.119 133.98 197.183 133.574C197.249 133.163 197.621 132.896 198.033 132.961C198.439 133.026 198.711 133.394 198.646 133.806C198.582 134.212 198.208 134.483 197.802 134.419ZM202.606 136.543C200.687 136.239 199.794 134.461 200.198 131.913L200.2 131.902C200.603 129.355 202.001 127.945 203.92 128.249C205.834 128.552 206.733 130.326 206.329 132.873L206.328 132.884C205.924 135.432 204.52 136.846 202.606 136.543ZM202.771 135.502C203.911 135.683 204.766 134.609 205.071 132.685L205.073 132.674C205.377 130.75 204.894 129.475 203.754 129.295C202.609 129.113 201.762 130.177 201.457 132.101L201.455 132.112C201.15 134.037 201.626 135.321 202.771 135.502ZM209.896 137.697C207.977 137.393 207.084 135.616 207.488 133.068L207.49 133.057C207.893 130.509 209.29 129.1 211.21 129.404C213.123 129.707 214.022 131.48 213.619 134.027L213.617 134.038C213.213 136.586 211.809 138 209.896 137.697ZM210.061 136.657C211.201 136.837 212.055 135.764 212.36 133.839L212.362 133.828C212.667 131.904 212.185 130.63 211.044 130.449C209.898 130.268 209.051 131.332 208.746 133.256L208.745 133.267C208.44 135.191 208.915 136.475 210.061 136.657ZM216.292 138.573L220.484 131.009L221.83 131.223L223.473 139.711L222.166 139.504L221.776 137.218L218.683 136.728L217.6 138.78L216.292 138.573ZM220.935 132.443L219.175 135.78L221.595 136.163L220.958 132.447L220.935 132.443ZM224.544 139.88L225.816 131.854L227.256 132.082L228.839 138.901L228.872 138.906L232.49 132.911L233.925 133.138L232.654 141.165L231.519 140.985L232.458 135.061L232.419 135.055L229.061 140.596L228.137 140.449L226.656 134.143L226.617 134.136L225.679 140.06L224.544 139.88Z" fill="#181818"/>
<path d="M66.6582 135.212C64.6887 134.9 63.6773 133.327 64.0257 131.127L64.0272 131.118C64.375 128.922 65.8278 127.739 67.7925 128.051C69.7524 128.361 70.7638 129.934 70.416 132.13L70.4145 132.139C70.0661 134.339 68.6229 135.524 66.6582 135.212ZM66.7845 134.415C68.2112 134.641 69.2629 133.69 69.5307 131.999L69.5322 131.99C69.8016 130.289 69.0786 129.072 67.6662 128.848C66.2492 128.623 65.1813 129.552 64.9111 131.258L64.9096 131.267C64.6395 132.972 65.3626 134.19 66.7845 134.415ZM73.0642 136.208C71.6472 135.984 70.9087 134.832 71.1604 133.243L71.1612 133.238C71.4108 131.662 72.4881 130.799 73.8763 131.018C75.1205 131.215 75.7246 132.158 75.6948 133.03L75.6936 133.069L74.877 132.94L74.8734 132.9C74.8276 132.38 74.4941 131.875 73.7591 131.758C72.8897 131.621 72.1944 132.249 72.0149 133.382L72.0141 133.387C71.83 134.549 72.3168 135.331 73.1814 135.468C73.8636 135.576 74.3615 135.261 74.5891 134.726L74.6049 134.688L75.4263 134.819L75.4161 134.852C75.131 135.781 74.1931 136.387 73.0642 136.208ZM77.7428 136.949C76.8253 136.804 76.4392 136.319 76.5906 135.363L77.0707 132.332L76.3405 132.216L76.45 131.525L77.1802 131.64L77.3941 130.29L78.2588 130.427L78.0449 131.777L78.996 131.928L78.8865 132.62L77.9353 132.469L77.4561 135.495C77.3717 136.028 77.5834 136.215 78.0301 136.285C78.131 136.301 78.2293 136.302 78.3022 136.309L78.1949 136.986C78.0869 136.984 77.9061 136.975 77.7428 136.949ZM81.2108 137.498C79.8226 137.278 79.0546 136.127 79.3064 134.537L79.3079 134.528C79.5598 132.938 80.6491 132.091 82.0277 132.309C83.4064 132.528 84.1864 133.665 83.9338 135.26L83.9323 135.27C83.6796 136.865 82.5895 137.717 81.2108 137.498ZM81.3328 136.759C82.2119 136.898 82.8916 136.307 83.0773 135.134L83.0787 135.125C83.2644 133.953 82.7945 133.189 81.9106 133.049C81.0411 132.912 80.3478 133.496 80.1629 134.663L80.1615 134.673C79.975 135.85 80.4489 136.619 81.3328 136.759ZM87.0471 138.423C86.3313 138.309 85.8312 137.86 85.611 137.23L85.5918 137.227L85.4579 138.072L84.6221 137.94L85.72 131.008L86.5558 131.14L86.1168 133.912L86.1361 133.915C86.5395 133.389 87.177 133.125 87.8832 133.237C89.137 133.435 89.8315 134.584 89.5819 136.16L89.5812 136.164C89.3316 137.74 88.3248 138.625 87.0471 138.423ZM87.0009 137.657C87.8848 137.797 88.5443 137.178 88.7262 136.029L88.7269 136.025C88.9072 134.886 88.4722 134.089 87.5883 133.949C86.7476 133.815 86.0261 134.454 85.8495 135.569L85.8488 135.573C85.6716 136.692 86.1555 137.523 87.0009 137.657ZM92.2636 139.249C90.8274 139.021 90.1218 137.88 90.3706 136.309L90.3714 136.304C90.6163 134.758 91.6683 133.836 93.0325 134.052C94.3967 134.269 95.0673 135.414 94.8298 136.913L94.7811 137.22L91.1832 136.65C91.0397 137.681 91.5113 138.371 92.4001 138.512C93.0341 138.613 93.5312 138.366 93.743 137.961L93.7642 137.92L94.5856 138.051L94.5684 138.097C94.2742 138.897 93.3541 139.422 92.2636 139.249ZM92.9106 134.792C92.1852 134.677 91.54 135.082 91.3012 135.999L94.0345 136.432C94.1065 135.448 93.6407 134.907 92.9106 134.792ZM95.4635 139.657L96.2547 134.661L97.0906 134.794L96.9567 135.639L96.9759 135.642C97.2354 135.092 97.7255 134.796 98.2875 134.885C98.4317 134.908 98.5528 134.951 98.6184 134.972L98.4899 135.783C98.4266 135.748 98.2525 135.696 98.0508 135.664C97.4023 135.562 96.908 135.947 96.7879 136.705L96.2993 139.789L95.4635 139.657Z" fill="#181818" fill-opacity="0.48"/>
<path d="M139.871 146.69L139.966 146.095L142.809 143.935C143.9 143.108 144.175 142.768 144.267 142.191L144.268 142.182C144.376 141.475 143.923 140.882 143.169 140.762C142.305 140.625 141.566 141.119 141.448 141.864L141.444 141.887L140.609 141.755L140.613 141.726C140.804 140.525 141.981 139.801 143.274 140.006C144.528 140.204 145.312 141.19 145.14 142.276L145.138 142.285C145.018 143.045 144.577 143.561 143.098 144.661L141.183 146.09L141.18 146.11L144.566 146.646L144.445 147.415L139.871 146.69ZM147.408 147.884L148.361 141.87L148.341 141.867L146.304 142.854L146.441 141.984L148.496 140.95L149.342 141.085L148.244 148.017L147.408 147.884Z" fill="#181818" fill-opacity="0.48"/>
<path d="M192.412 155.13C191.134 154.927 189.919 153.829 190.326 151.26L190.328 151.249C190.698 148.915 191.908 147.709 193.603 147.977C194.781 148.164 195.553 148.975 195.624 150.021L195.629 150.086L194.749 149.946L194.738 149.89C194.623 149.286 194.184 148.852 193.473 148.739C192.181 148.534 191.473 149.708 191.205 151.157C191.192 151.204 191.184 151.253 191.176 151.305L191.196 151.308C191.571 150.737 192.361 150.351 193.303 150.5C194.623 150.709 195.449 151.84 195.241 153.156L195.24 153.165C195.023 154.53 193.829 155.354 192.412 155.13ZM191.196 152.515C191.055 153.403 191.635 154.219 192.524 154.36C193.408 154.5 194.219 153.919 194.357 153.045L194.359 153.036C194.502 152.132 193.946 151.38 193.034 151.236C192.126 151.092 191.336 151.626 191.197 152.51L191.196 152.515ZM197.443 150.91C197.135 150.861 196.933 150.582 196.982 150.275C197.031 149.967 197.309 149.766 197.616 149.814C197.923 149.863 198.126 150.141 198.077 150.448C198.029 150.756 197.75 150.958 197.443 150.91ZM196.854 154.627C196.546 154.579 196.345 154.3 196.393 153.993C196.442 153.685 196.72 153.483 197.027 153.532C197.335 153.581 197.537 153.859 197.489 154.166C197.44 154.473 197.161 154.676 196.854 154.627ZM200.899 156.474C199.305 156.222 198.576 154.693 198.925 152.493L198.926 152.484C199.275 150.284 200.439 149.06 202.034 149.312C203.628 149.565 204.367 151.09 204.018 153.29L204.017 153.3C203.668 155.5 202.494 156.727 200.899 156.474ZM201.019 155.72C202.075 155.887 202.872 154.901 203.148 153.162L203.149 153.153C203.425 151.414 202.97 150.239 201.914 150.072C200.857 149.904 200.072 150.883 199.796 152.622L199.795 152.631C199.519 154.37 199.962 155.553 201.019 155.72ZM207.062 157.45C205.468 157.198 204.739 155.669 205.088 153.469L205.089 153.46C205.438 151.26 206.602 150.036 208.196 150.288C209.792 150.541 210.53 152.067 210.182 154.267L210.18 154.276C209.832 156.476 208.657 157.703 207.062 157.45ZM207.182 156.696C208.239 156.863 209.035 155.877 209.31 154.138L209.312 154.129C209.587 152.39 209.134 151.215 208.076 151.048C207.02 150.88 206.234 151.859 205.959 153.598L205.958 153.607C205.682 155.346 206.125 156.529 207.182 156.696ZM212.599 158.209L216.277 151.686L217.132 151.821L218.609 159.161L217.701 159.018L217.314 156.923L214.523 156.481L213.507 158.353L212.599 158.209ZM216.53 152.79L214.903 155.788L217.171 156.147L216.55 152.793L216.53 152.79ZM219.603 159.319L220.701 152.387L221.7 152.545L223.177 158.767L223.206 158.772L226.533 153.31L227.532 153.469L226.434 160.401L225.627 160.273L226.475 154.917L226.446 154.912L223.383 159.918L222.654 159.802L221.287 154.095L221.258 154.09L220.41 159.447L219.603 159.319Z" fill="#181818" fill-opacity="0.48"/>
<path d="M60.443 149.611L61.3098 144.139L61.9734 144.244L64.2683 148.973L64.329 148.983L65.0035 144.724L65.6786 144.831L64.8118 150.303L64.1481 150.198L61.8509 145.484L61.7902 145.474L61.1181 149.718L60.443 149.611ZM67.6683 150.829C66.504 150.645 65.9109 149.727 66.1181 148.418L66.1193 148.411C66.3272 147.098 67.1743 146.413 68.3386 146.597C69.5028 146.782 70.0967 147.695 69.8889 149.008L69.8877 149.016C69.6805 150.324 68.8325 151.014 67.6683 150.829ZM67.7609 150.245C68.5345 150.367 69.0601 149.871 69.2126 148.909L69.2138 148.901C69.367 147.934 69.0198 147.303 68.2462 147.181C67.4725 147.058 66.9474 147.551 66.7943 148.518L66.7931 148.525C66.6406 149.488 66.9872 150.122 67.7609 150.245ZM71.4691 151.358L70.6036 147.029L71.3013 147.14L71.8868 150.684L71.9474 150.694L73.5995 147.504L74.2973 147.615L72.1366 151.463L71.4691 151.358ZM75.9033 152.133C74.7353 151.949 74.1596 151.018 74.3627 149.736L74.3632 149.732C74.5633 148.469 75.4207 147.719 76.5318 147.895C77.643 148.071 78.1871 149.005 77.9938 150.225L77.9529 150.483L75.01 150.017C74.8951 150.866 75.2834 151.433 76.0116 151.548C76.5653 151.636 76.948 151.428 77.097 151.199L77.1176 151.167L77.7774 151.272L77.765 151.301C77.5371 151.832 76.8666 152.286 75.9033 152.133ZM76.4349 148.482C75.8282 148.386 75.3001 148.726 75.1048 149.492L77.3651 149.85C77.4249 149.031 77.038 148.578 76.4349 148.482ZM78.5588 152.481L79.2064 148.392L79.8662 148.497L79.7678 149.118L79.8284 149.128C80.0802 148.717 80.5071 148.524 81.0418 148.609C81.5955 148.697 81.9362 149.05 82.0586 149.504L82.1192 149.514C82.4077 149.116 82.9191 148.906 83.4841 148.996C84.3184 149.128 84.7094 149.679 84.5736 150.536L84.126 153.362L83.4661 153.258L83.8896 150.584C83.9851 149.981 83.7557 149.637 83.1793 149.546C82.6104 149.456 82.1671 149.825 82.0848 150.345L81.6686 152.973L81.0086 152.869L81.4483 150.092C81.5252 149.607 81.2414 149.239 80.7257 149.157C80.191 149.073 79.7113 149.475 79.62 150.051L79.2187 152.585L78.5588 152.481ZM87.2138 153.925C86.645 153.835 86.2326 153.493 86.0544 152.998L85.9937 152.989L85.8903 153.642L85.2304 153.537L86.1351 147.826L86.7949 147.93L86.4358 150.198L86.4965 150.207C86.7892 149.807 87.3229 149.604 87.8841 149.693C88.9232 149.857 89.4668 150.795 89.2637 152.077L89.2625 152.084C89.0607 153.359 88.2491 154.089 87.2138 153.925ZM87.1547 153.316C87.9018 153.435 88.4367 152.929 88.5875 151.977L88.5887 151.97C88.7394 151.018 88.3871 150.371 87.64 150.252C86.8967 150.135 86.3491 150.647 86.1995 151.591L86.1983 151.599C86.0488 152.543 86.4114 153.199 87.1547 153.316ZM91.4963 154.603C90.3283 154.418 89.7526 153.487 89.9557 152.205L89.9562 152.202C90.1563 150.938 91.0137 150.189 92.1248 150.365C93.236 150.541 93.7801 151.474 93.5868 152.695L93.5459 152.953L90.6031 152.487C90.4881 153.335 90.8764 153.902 91.6046 154.018C92.1583 154.105 92.541 153.898 92.6901 153.669L92.7106 153.637L93.3704 153.742L93.3581 153.771C93.1301 154.302 92.4596 154.756 91.4963 154.603ZM92.028 150.952C91.4212 150.856 90.8932 151.195 90.6978 151.962L92.9581 152.32C93.0179 151.501 92.6309 151.047 92.028 150.952ZM94.1518 154.95L94.7994 150.862L95.4592 150.966L95.3632 151.573L95.4239 151.582C95.6472 151.179 96.0698 150.989 96.6235 151.077C96.7487 151.097 96.8865 151.134 96.9493 151.156L96.8478 151.797C96.7148 151.752 96.5921 151.717 96.448 151.694C95.8185 151.595 95.3079 151.921 95.213 152.521L94.8117 155.055L94.1518 154.95Z" fill="#181818" fill-opacity="0.48"/>
<path d="M137.964 161.889L138.039 161.419L140.207 159.71C141.024 159.065 141.274 158.813 141.349 158.336L141.351 158.328C141.442 157.751 141.12 157.257 140.476 157.155C139.82 157.051 139.315 157.411 139.213 158.055L139.209 158.063L138.557 157.956L138.55 157.95C138.707 156.98 139.569 156.401 140.616 156.567C141.571 156.718 142.201 157.483 142.061 158.366L142.059 158.374C141.96 159 141.619 159.412 140.467 160.276L139.02 161.364L139.01 161.425L141.604 161.836L141.506 162.45L137.964 161.889ZM142.527 162.612L142.602 162.142L144.77 160.432C145.588 159.788 145.837 159.536 145.913 159.059L145.914 159.051C146.005 158.474 145.683 157.98 145.039 157.878C144.383 157.774 143.878 158.134 143.776 158.778L143.772 158.785L143.12 158.679L143.113 158.673C143.27 157.702 144.132 157.124 145.178 157.29C146.134 157.441 146.764 158.206 146.624 159.089L146.623 159.097C146.523 159.722 146.182 160.135 145.031 160.998L143.583 162.087L143.573 162.148L146.167 162.558L146.069 163.173L142.527 162.612Z" fill="#181818" fill-opacity="0.48"/>
<path d="M191.728 170.405L194.947 165.985L194.956 165.932L192.028 165.468L192.125 164.858L195.746 165.431L195.646 166.065L192.445 170.518L191.728 170.405ZM196.853 167.41C196.584 167.367 196.395 167.109 196.438 166.839C196.481 166.566 196.74 166.382 197.009 166.424C197.282 166.468 197.467 166.722 197.424 166.996C197.381 167.265 197.126 167.453 196.853 167.41ZM196.388 170.346C196.119 170.303 195.931 170.044 195.973 169.774C196.016 169.501 196.275 169.317 196.544 169.36C196.817 169.403 197.002 169.658 196.959 169.93C196.916 170.2 196.661 170.389 196.388 170.346ZM199.715 171.801C198.506 171.61 197.96 170.393 198.239 168.633L198.24 168.625C198.519 166.865 199.413 165.88 200.623 166.071C201.833 166.263 202.387 167.478 202.108 169.238L202.107 169.245C201.828 171.005 200.925 171.993 199.715 171.801ZM199.809 171.206C200.595 171.33 201.199 170.532 201.42 169.137L201.421 169.129C201.642 167.734 201.313 166.795 200.528 166.671C199.743 166.546 199.147 167.339 198.926 168.734L198.924 168.741C198.703 170.137 199.025 171.082 199.809 171.206ZM204.483 172.557C203.273 172.365 202.727 171.148 203.006 169.388L203.007 169.38C203.286 167.62 204.181 166.635 205.391 166.826C206.6 167.018 207.154 168.233 206.875 169.993L206.874 170C206.595 171.76 205.693 172.748 204.483 172.557ZM204.578 171.961C205.362 172.085 205.967 171.287 206.188 169.892L206.19 169.884C206.411 168.489 206.081 167.55 205.296 167.426C204.511 167.302 203.915 168.094 203.694 169.489L203.693 169.497C203.472 170.892 203.792 171.837 204.578 171.961ZM209.151 173.164L212.035 168.011L212.71 168.118L213.861 173.91L213.144 173.797L212.843 172.143L210.665 171.798L209.867 173.278L209.151 173.164ZM212.202 168.943L210.958 171.25L212.733 171.531L212.263 168.953L212.202 168.943ZM214.697 174.043L215.563 168.57L216.356 168.695L217.506 173.558L217.566 173.567L220.163 169.298L220.956 169.424L220.089 174.897L219.452 174.796L220.114 170.616L220.072 170.609L217.68 174.515L217.104 174.424L216.037 169.97L215.995 169.964L215.333 174.143L214.697 174.043Z" fill="#181818" fill-opacity="0.48"/>
<g opacity="0.24">
<path d="M60.2346 164.213L60.9856 159.47L62.6126 159.728C64.0193 159.951 64.7118 160.96 64.476 162.449L64.4751 162.455C64.2387 163.947 63.2715 164.694 61.8615 164.47L60.2346 164.213ZM60.9104 163.774L61.9063 163.932C62.9646 164.1 63.6865 163.52 63.8692 162.366L63.8703 162.359C64.0534 161.203 63.5406 160.421 62.4889 160.254L61.493 160.096L60.9104 163.774ZM66.4477 165.261C65.4355 165.1 64.9364 164.294 65.1125 163.183L65.113 163.179C65.2864 162.085 66.0295 161.435 66.9925 161.587C67.9555 161.74 68.427 162.549 68.2594 163.608L68.2241 163.831L65.6736 163.427C65.5739 164.162 65.9105 164.654 66.5416 164.754C67.0213 164.83 67.3532 164.649 67.4822 164.451L67.5 164.424L68.0719 164.515L68.0612 164.54C67.8636 165 67.2826 165.393 66.4477 165.261ZM66.9086 162.096C66.3827 162.013 65.9248 162.308 65.7558 162.971L67.7146 163.281C67.7664 162.572 67.4312 162.179 66.9086 162.096ZM70.255 165.864C69.2624 165.707 68.7421 164.887 68.9201 163.762L68.9212 163.756C69.0955 162.655 69.8401 162.038 70.8327 162.195C71.6938 162.332 72.1311 162.91 72.1364 163.558L72.1366 163.578L71.568 163.487L71.5662 163.478C71.5327 163.115 71.262 162.782 70.7526 162.701C70.1149 162.6 69.6326 163.05 69.5062 163.848L69.5051 163.855C69.376 164.67 69.7008 165.257 70.3319 165.357C70.8084 165.433 71.1441 165.27 71.3381 164.897L71.3479 164.878L71.9135 164.965L71.9014 164.999C71.6552 165.617 71.1063 165.999 70.255 165.864ZM73.9769 166.453C72.9646 166.293 72.4656 165.487 72.6416 164.375L72.6422 164.372C72.8155 163.277 73.5586 162.627 74.5217 162.78C75.4847 162.932 75.9562 163.742 75.7886 164.8L75.7532 165.023L73.2027 164.619C73.1031 165.355 73.4397 165.846 74.0707 165.946C74.5506 166.022 74.8823 165.842 75.0114 165.644L75.0292 165.617L75.6011 165.707L75.5904 165.732C75.3928 166.193 74.8117 166.585 73.9769 166.453ZM74.4377 163.288C73.9118 163.205 73.4541 163.501 73.285 164.164L75.2439 164.474C75.2956 163.764 74.9603 163.371 74.4377 163.288ZM76.3447 166.764L76.9058 163.221L77.4777 163.312L77.3923 163.851L77.4449 163.859C77.663 163.503 78.0332 163.336 78.4966 163.409C78.9765 163.485 79.2716 163.792 79.3776 164.186L79.4302 164.194C79.6802 163.849 80.1236 163.667 80.6132 163.744C81.3363 163.859 81.6751 164.337 81.5574 165.08L81.1696 167.528L80.5977 167.438L80.9646 165.121C81.0474 164.598 80.8486 164.3 80.3491 164.221C79.856 164.143 79.4719 164.463 79.4006 164.913L79.0398 167.191L78.4679 167.1L78.8488 164.695C78.9156 164.274 78.6695 163.955 78.2226 163.884C77.7591 163.811 77.3434 164.16 77.2642 164.66L76.9165 166.855L76.3447 166.764ZM83.9119 168.027C83.4189 167.949 83.0615 167.653 82.907 167.224L82.8544 167.216L82.7649 167.781L82.193 167.69L82.977 162.741L83.5489 162.831L83.2375 164.797L83.2901 164.806C83.5439 164.458 84.0065 164.282 84.4928 164.359C85.3935 164.502 85.8645 165.314 85.6885 166.425L85.6874 166.432C85.5126 167.536 84.8092 168.169 83.9119 168.027ZM83.8606 167.5C84.508 167.603 84.9718 167.164 85.1024 166.339L85.1035 166.333C85.2342 165.507 84.9287 164.947 84.2813 164.844C83.6371 164.742 83.1624 165.186 83.0328 166.005L83.0317 166.011C82.9021 166.83 83.2164 167.398 83.8606 167.5ZM87.6897 168.625C86.6774 168.465 86.1784 167.659 86.3544 166.547L86.3549 166.544C86.5283 165.449 87.2715 164.799 88.2344 164.952C89.1975 165.104 89.6689 165.914 89.5013 166.972L89.466 167.195L86.9156 166.791C86.8158 167.527 87.1524 168.018 87.7835 168.118C88.2634 168.194 88.5951 168.014 88.7242 167.816L88.7419 167.788L89.3139 167.879L89.3031 167.904C89.1055 168.365 88.5245 168.757 87.6897 168.625ZM88.1505 165.46C87.6247 165.377 87.1668 165.672 86.9977 166.336L88.9567 166.646C89.0083 165.936 88.6731 165.543 88.1505 165.46ZM90.0574 168.936L90.6186 165.393L91.1905 165.484L91.1072 166.01L91.1597 166.018C91.3534 165.668 91.7196 165.504 92.1995 165.58C92.308 165.597 92.4274 165.629 92.4819 165.648L92.3938 166.203C92.2786 166.165 92.1723 166.134 92.0474 166.115C91.5018 166.028 91.0593 166.312 90.977 166.832L90.6294 169.027L90.0574 168.936Z" fill="#181818" fill-opacity="0.48"/>
<path d="M136.127 176.233L136.192 175.826L138.071 174.344C138.779 173.785 138.995 173.568 139.061 173.153L139.062 173.146C139.141 172.647 138.862 172.219 138.303 172.13C137.734 172.04 137.298 172.352 137.209 172.911L137.205 172.916L136.64 172.824L136.634 172.82C136.771 171.978 137.517 171.477 138.424 171.62C139.253 171.752 139.798 172.414 139.676 173.18L139.675 173.186C139.59 173.729 139.294 174.086 138.296 174.834L137.042 175.779L137.033 175.831L139.281 176.187L139.196 176.719L136.127 176.233ZM141.75 177.205C140.77 177.05 140.222 176.403 140.278 175.644L140.281 175.604L140.85 175.694L140.848 175.728C140.82 176.201 141.199 176.592 141.831 176.692C142.452 176.79 142.931 176.509 143.01 176.006L143.011 175.999C143.104 175.418 142.738 175.026 142.074 174.921L141.479 174.827L141.558 174.327L142.127 174.417C142.692 174.507 143.142 174.221 143.217 173.747L143.218 173.741C143.296 173.245 143.016 172.907 142.438 172.815C141.879 172.727 141.434 172.96 141.309 173.432L141.301 173.465L140.732 173.375L140.741 173.342C140.938 172.581 141.631 172.162 142.519 172.303C143.423 172.446 143.938 173.043 143.824 173.763L143.823 173.77C143.73 174.354 143.253 174.69 142.641 174.721L142.639 174.734C143.32 174.903 143.722 175.407 143.615 176.081L143.614 176.088C143.488 176.88 142.699 177.355 141.75 177.205Z" fill="#181818" fill-opacity="0.48"/>
<path d="M192.294 185.21C191.288 185.051 190.662 184.372 190.788 183.577L190.789 183.57C190.881 182.985 191.369 182.563 191.999 182.519L192.001 182.505C191.508 182.262 191.241 181.815 191.321 181.316L191.322 181.309C191.435 180.593 192.173 180.167 193.07 180.309C193.967 180.451 194.538 181.084 194.424 181.801L194.423 181.807C194.344 182.307 193.953 182.649 193.408 182.728L193.406 182.741C193.992 182.979 194.325 183.53 194.233 184.116L194.232 184.122C194.106 184.917 193.3 185.369 192.294 185.21ZM192.74 182.396C193.312 182.487 193.754 182.223 193.827 181.763L193.828 181.757C193.901 181.297 193.561 180.909 192.99 180.818C192.418 180.728 191.975 180.992 191.902 181.452L191.901 181.458C191.829 181.918 192.168 182.306 192.74 182.396ZM192.376 184.694C193.03 184.798 193.555 184.503 193.636 183.991L193.637 183.984C193.719 183.465 193.315 183.02 192.658 182.915C192 182.811 191.478 183.11 191.396 183.629L191.395 183.636C191.313 184.148 191.722 184.591 192.376 184.694ZM195.923 182.405C195.69 182.368 195.527 182.144 195.564 181.91C195.601 181.674 195.826 181.514 196.059 181.551C196.295 181.589 196.456 181.809 196.418 182.045C196.381 182.279 196.16 182.443 195.923 182.405ZM195.521 184.949C195.287 184.912 195.124 184.688 195.161 184.455C195.198 184.217 195.423 184.058 195.656 184.095C195.892 184.133 196.053 184.353 196.015 184.59C195.978 184.823 195.757 184.986 195.521 184.949ZM198.47 186.222C197.422 186.056 196.949 185 197.191 183.475L197.192 183.469C197.434 181.944 198.209 181.089 199.257 181.255C200.306 181.421 200.786 182.475 200.544 184L200.543 184.006C200.302 185.531 199.519 186.388 198.47 186.222ZM198.552 185.706C199.233 185.814 199.757 185.122 199.949 183.912L199.949 183.906C200.141 182.696 199.855 181.883 199.175 181.775C198.495 181.667 197.978 182.353 197.787 183.563L197.786 183.569C197.594 184.78 197.872 185.598 198.552 185.706ZM202.669 186.887C201.62 186.721 201.148 185.665 201.389 184.14L201.39 184.134C201.632 182.609 202.407 181.754 203.456 181.92C204.504 182.086 204.984 183.14 204.742 184.665L204.741 184.671C204.5 186.196 203.717 187.053 202.669 186.887ZM202.751 186.371C203.431 186.479 203.955 185.787 204.147 184.577L204.148 184.571C204.339 183.361 204.054 182.547 203.374 182.44C202.693 182.332 202.176 183.018 201.985 184.228L201.984 184.234C201.792 185.444 202.07 186.263 202.751 186.371ZM206.847 187.434L209.347 182.969L209.932 183.061L210.929 188.08L210.308 187.982L210.046 186.549L208.16 186.25L207.468 187.532L206.847 187.434ZM209.491 183.776L208.414 185.776L209.952 186.019L209.545 183.784L209.491 183.776ZM211.719 188.205L212.471 183.463L213.157 183.572L214.155 187.786L214.207 187.794L216.457 184.095L217.144 184.204L216.393 188.946L215.841 188.858L216.414 185.237L216.378 185.231L214.306 188.615L213.806 188.536L212.881 184.677L212.845 184.671L212.272 188.293L211.719 188.205Z" fill="#181818" fill-opacity="0.48"/>
</g>
<path d="M221.286 208.046L52.4883 181.311C45.6252 180.224 39.1803 184.906 38.0933 191.769C37.0063 198.632 41.6888 205.077 48.5519 206.164L217.349 232.899C224.212 233.986 230.657 229.304 231.744 222.441C232.831 215.577 228.149 209.133 221.286 208.046Z" fill="#2C8032"/>
<path d="M106.422 201.219C106.434 200.97 106.354 200.762 106.181 200.595C106.01 200.427 105.77 200.319 105.462 200.271C105.245 200.236 105.054 200.239 104.888 200.28C104.722 200.321 104.589 200.391 104.489 200.49C104.389 200.59 104.327 200.711 104.302 200.855C104.283 200.975 104.294 201.083 104.334 201.179C104.376 201.276 104.44 201.363 104.526 201.44C104.612 201.515 104.71 201.582 104.819 201.641C104.928 201.701 105.04 201.754 105.153 201.801L105.671 202.021C105.88 202.106 106.077 202.207 106.264 202.325C106.452 202.443 106.616 202.58 106.754 202.736C106.894 202.892 106.996 203.071 107.06 203.271C107.125 203.471 107.137 203.695 107.098 203.944C107.044 204.281 106.911 204.563 106.699 204.792C106.486 205.02 106.206 205.179 105.858 205.272C105.511 205.363 105.108 205.372 104.648 205.299C104.201 205.228 103.824 205.097 103.517 204.907C103.211 204.717 102.987 204.474 102.844 204.179C102.703 203.884 102.655 203.545 102.7 203.161L103.724 203.323C103.708 203.526 103.743 203.702 103.83 203.852C103.918 204.002 104.043 204.124 104.207 204.217C104.372 204.31 104.564 204.374 104.781 204.408C105.007 204.444 105.211 204.442 105.391 204.401C105.575 204.359 105.724 204.285 105.841 204.179C105.958 204.071 106.03 203.935 106.058 203.771C106.08 203.621 106.055 203.49 105.985 203.379C105.914 203.267 105.807 203.165 105.662 203.075C105.519 202.983 105.349 202.895 105.152 202.81L104.525 202.538C104.071 202.342 103.726 202.098 103.49 201.808C103.256 201.516 103.172 201.164 103.237 200.752C103.291 200.414 103.429 200.132 103.653 199.906C103.878 199.681 104.161 199.524 104.501 199.434C104.842 199.342 105.213 199.328 105.615 199.392C106.023 199.456 106.369 199.584 106.654 199.775C106.94 199.964 107.151 200.198 107.287 200.476C107.424 200.753 107.469 201.054 107.424 201.378L106.422 201.219ZM109.197 206.017C108.767 205.948 108.412 205.795 108.133 205.558C107.857 205.32 107.661 205.022 107.548 204.662C107.436 204.301 107.415 203.903 107.484 203.467C107.553 203.029 107.698 202.656 107.92 202.348C108.141 202.038 108.421 201.814 108.757 201.676C109.095 201.535 109.475 201.499 109.896 201.565C110.246 201.621 110.545 201.734 110.794 201.906C111.045 202.076 111.233 202.291 111.357 202.55C111.481 202.808 111.529 203.094 111.503 203.408L110.532 203.254C110.525 203.04 110.459 202.852 110.333 202.69C110.21 202.527 110.025 202.426 109.78 202.387C109.573 202.354 109.381 202.381 109.207 202.469C109.032 202.554 108.884 202.694 108.763 202.887C108.644 203.081 108.562 203.323 108.516 203.613C108.47 203.907 108.473 204.166 108.525 204.391C108.578 204.615 108.673 204.796 108.81 204.934C108.95 205.071 109.125 205.157 109.336 205.19C109.486 205.214 109.624 205.207 109.751 205.169C109.88 205.13 109.993 205.063 110.091 204.967C110.188 204.872 110.264 204.748 110.319 204.598L111.29 204.752C111.217 205.053 111.085 205.309 110.892 205.52C110.7 205.729 110.459 205.879 110.171 205.969C109.883 206.058 109.558 206.074 109.197 206.017ZM112.911 203.93L112.511 206.455L111.496 206.294L112.406 200.548L113.399 200.705L113.055 202.874L113.106 202.882C113.245 202.655 113.432 202.488 113.666 202.381C113.901 202.273 114.184 202.245 114.513 202.297C114.812 202.344 115.063 202.448 115.266 202.609C115.469 202.769 115.612 202.98 115.695 203.24C115.781 203.501 115.796 203.806 115.741 204.154L115.306 206.898L114.29 206.737L114.7 204.15C114.746 203.86 114.707 203.623 114.583 203.438C114.461 203.252 114.266 203.138 113.998 203.095C113.819 203.067 113.652 203.081 113.497 203.137C113.345 203.191 113.217 203.285 113.113 203.418C113.011 203.552 112.944 203.722 112.911 203.93ZM117.841 207.386C117.409 207.317 117.05 207.168 116.764 206.939C116.48 206.708 116.281 206.414 116.165 206.056C116.049 205.696 116.027 205.291 116.098 204.84C116.169 204.397 116.314 204.021 116.536 203.713C116.759 203.403 117.038 203.179 117.373 203.04C117.708 202.9 118.081 202.862 118.493 202.927C118.758 202.969 119.002 203.052 119.224 203.175C119.448 203.297 119.637 203.461 119.79 203.668C119.946 203.874 120.054 204.123 120.115 204.415C120.176 204.705 120.177 205.038 120.117 205.416L120.068 205.728L116.535 205.168L116.644 204.484L119.203 204.889C119.232 204.694 119.217 204.514 119.159 204.35C119.101 204.183 119.005 204.045 118.871 203.933C118.739 203.822 118.576 203.751 118.381 203.72C118.174 203.688 117.983 203.709 117.81 203.785C117.637 203.86 117.494 203.971 117.38 204.12C117.269 204.267 117.197 204.437 117.164 204.629L117.07 205.227C117.03 205.478 117.042 205.7 117.105 205.894C117.169 206.086 117.275 206.243 117.425 206.365C117.574 206.484 117.76 206.562 117.98 206.597C118.128 206.62 118.265 206.621 118.391 206.598C118.518 206.574 118.632 206.528 118.733 206.46C118.834 206.391 118.916 206.3 118.98 206.185L119.912 206.442C119.812 206.683 119.663 206.884 119.465 207.045C119.27 207.203 119.034 207.314 118.757 207.375C118.481 207.435 118.176 207.439 117.841 207.386ZM121.822 208.008C121.484 207.954 121.195 207.819 120.955 207.603C120.715 207.386 120.543 207.1 120.44 206.745C120.338 206.389 120.324 205.974 120.399 205.501C120.475 205.022 120.617 204.631 120.826 204.326C121.038 204.02 121.292 203.805 121.588 203.679C121.884 203.551 122.198 203.514 122.529 203.566C122.781 203.606 122.982 203.682 123.131 203.794C123.281 203.904 123.394 204.026 123.47 204.161C123.547 204.294 123.603 204.417 123.639 204.53L123.681 204.537L124.021 202.387L125.04 202.549L124.13 208.295L123.131 208.137L123.238 207.458L123.177 207.448C123.108 207.545 123.014 207.644 122.896 207.746C122.779 207.847 122.632 207.925 122.456 207.981C122.281 208.038 122.069 208.047 121.822 208.008ZM122.238 207.219C122.453 207.253 122.645 207.224 122.815 207.132C122.985 207.038 123.126 206.893 123.238 206.696C123.35 206.499 123.428 206.261 123.472 205.982C123.516 205.703 123.515 205.455 123.469 205.237C123.425 205.019 123.336 204.841 123.203 204.703C123.071 204.565 122.896 204.479 122.677 204.444C122.451 204.408 122.253 204.437 122.083 204.531C121.912 204.625 121.772 204.77 121.663 204.965C121.553 205.161 121.477 205.392 121.435 205.66C121.392 205.929 121.393 206.175 121.436 206.399C121.481 206.621 121.57 206.805 121.702 206.95C121.837 207.094 122.015 207.184 122.238 207.219ZM127.851 207.027L128.247 204.529L129.262 204.69L128.58 209L127.595 208.844L127.716 208.078L127.671 208.071C127.536 208.297 127.345 208.469 127.098 208.587C126.853 208.706 126.568 208.739 126.245 208.688C125.962 208.643 125.722 208.541 125.525 208.381C125.33 208.22 125.191 208.009 125.108 207.748C125.025 207.486 125.01 207.183 125.065 206.839L125.5 204.094L126.515 204.255L126.106 206.842C126.062 207.115 126.103 207.344 126.227 207.529C126.351 207.713 126.535 207.825 126.778 207.863C126.928 207.887 127.078 207.874 127.23 207.823C127.382 207.772 127.514 207.682 127.627 207.552C127.742 207.421 127.816 207.246 127.851 207.027ZM131.155 203.517L130.245 209.264L129.229 209.103L130.139 203.356L131.155 203.517ZM132.789 209.753C132.357 209.685 131.998 209.536 131.712 209.306C131.428 209.076 131.229 208.781 131.113 208.423C130.997 208.064 130.975 207.659 131.046 207.208C131.117 206.764 131.262 206.389 131.484 206.08C131.707 205.771 131.986 205.546 132.321 205.408C132.656 205.267 133.029 205.229 133.441 205.295C133.706 205.337 133.95 205.419 134.172 205.543C134.396 205.664 134.585 205.829 134.738 206.035C134.894 206.242 135.002 206.491 135.063 206.783C135.124 207.072 135.125 207.406 135.065 207.784L135.016 208.095L131.483 207.536L131.592 206.851L134.151 207.256C134.18 207.062 134.165 206.882 134.107 206.717C134.049 206.551 133.953 206.412 133.819 206.301C133.687 206.19 133.524 206.119 133.329 206.088C133.122 206.055 132.931 206.077 132.758 206.153C132.585 206.227 132.442 206.339 132.328 206.487C132.217 206.635 132.145 206.805 132.112 206.997L132.018 207.595C131.978 207.845 131.99 208.068 132.053 208.262C132.117 208.454 132.223 208.611 132.373 208.732C132.522 208.852 132.708 208.929 132.928 208.964C133.076 208.988 133.213 208.988 133.339 208.966C133.466 208.942 133.58 208.896 133.681 208.827C133.782 208.759 133.864 208.667 133.928 208.553L134.86 208.81C134.76 209.051 134.611 209.252 134.414 209.412C134.218 209.571 133.982 209.681 133.705 209.743C133.429 209.803 133.124 209.806 132.789 209.753ZM139.583 206.325L139.458 207.111L136.981 206.718L137.105 205.932L139.583 206.325ZM137.88 204.997L138.896 205.158L138.255 209.204C138.234 209.34 138.238 209.448 138.267 209.528C138.299 209.606 138.347 209.663 138.412 209.7C138.477 209.738 138.552 209.763 138.636 209.776C138.7 209.786 138.759 209.791 138.812 209.79C138.868 209.789 138.911 209.787 138.94 209.784L138.985 210.605C138.928 210.615 138.847 210.624 138.743 210.63C138.64 210.637 138.516 210.631 138.372 210.611C138.116 210.579 137.893 210.504 137.702 210.388C137.512 210.269 137.371 210.111 137.28 209.912C137.191 209.714 137.168 209.48 137.213 209.211L137.88 204.997ZM140.863 208.357L140.463 210.882L139.447 210.721L140.357 204.975L141.351 205.132L141.007 207.301L141.058 207.309C141.197 207.082 141.384 206.915 141.617 206.808C141.853 206.7 142.135 206.672 142.465 206.724C142.764 206.771 143.015 206.875 143.218 207.036C143.421 207.196 143.564 207.407 143.647 207.668C143.732 207.928 143.747 208.233 143.692 208.581L143.258 211.325L142.242 211.164L142.652 208.577C142.697 208.287 142.658 208.05 142.534 207.865C142.412 207.679 142.217 207.565 141.95 207.522C141.77 207.494 141.603 207.508 141.449 207.564C141.296 207.618 141.168 207.712 141.065 207.845C140.963 207.979 140.896 208.149 140.863 208.357ZM145.793 211.813C145.36 211.744 145.001 211.595 144.716 211.366C144.432 211.135 144.232 210.841 144.116 210.483C144.001 210.123 143.979 209.718 144.05 209.267C144.12 208.824 144.266 208.448 144.487 208.14C144.711 207.83 144.99 207.606 145.325 207.467C145.659 207.327 146.033 207.289 146.444 207.354C146.71 207.396 146.954 207.479 147.176 207.602C147.4 207.724 147.589 207.888 147.742 208.095C147.897 208.301 148.005 208.551 148.067 208.842C148.128 209.132 148.129 209.466 148.069 209.843L148.02 210.155L144.487 209.595L144.595 208.911L147.154 209.316C147.183 209.121 147.169 208.942 147.11 208.777C147.052 208.611 146.956 208.472 146.823 208.36C146.691 208.249 146.527 208.178 146.333 208.148C146.125 208.115 145.935 208.136 145.762 208.212C145.589 208.287 145.446 208.398 145.332 208.547C145.22 208.694 145.148 208.864 145.116 209.056L145.021 209.654C144.982 209.905 144.993 210.127 145.057 210.321C145.12 210.514 145.227 210.67 145.376 210.792C145.526 210.911 145.711 210.989 145.932 211.024C146.08 211.047 146.217 211.048 146.343 211.025C146.469 211.001 146.583 210.955 146.684 210.887C146.785 210.818 146.868 210.727 146.932 210.613L147.863 210.869C147.764 211.111 147.615 211.311 147.417 211.472C147.221 211.631 146.985 211.741 146.709 211.803C146.433 211.862 146.127 211.866 145.793 211.813ZM149.495 213.97L150.434 208.044L151.433 208.202L151.32 208.914L151.379 208.924C151.448 208.827 151.54 208.728 151.654 208.625C151.768 208.52 151.913 208.439 152.089 208.38C152.266 208.32 152.48 208.31 152.733 208.35C153.066 208.403 153.352 208.535 153.593 208.748C153.836 208.959 154.009 209.243 154.114 209.599C154.221 209.953 154.236 210.37 154.16 210.849C154.086 211.322 153.944 211.712 153.736 212.018C153.529 212.325 153.277 212.544 152.982 212.675C152.687 212.807 152.37 212.846 152.032 212.792C151.785 212.753 151.587 212.68 151.437 212.572C151.287 212.463 151.172 212.344 151.091 212.212C151.013 212.079 150.954 211.955 150.917 211.842L150.875 211.835L150.511 214.131L149.495 213.97ZM151.089 210.356C151.045 210.635 151.045 210.885 151.091 211.107C151.138 211.33 151.227 211.511 151.358 211.653C151.491 211.793 151.665 211.88 151.88 211.914C152.105 211.95 152.302 211.92 152.473 211.824C152.644 211.726 152.784 211.579 152.894 211.381C153.006 211.182 153.083 210.948 153.126 210.679C153.168 210.411 153.168 210.168 153.124 209.948C153.08 209.728 152.992 209.547 152.859 209.406C152.726 209.264 152.546 209.175 152.32 209.139C152.103 209.105 151.91 209.132 151.74 209.223C151.571 209.313 151.43 209.454 151.319 209.648C151.21 209.841 151.133 210.078 151.089 210.356ZM156.161 213.455C155.741 213.388 155.39 213.238 155.111 213.004C154.832 212.77 154.633 212.473 154.516 212.113C154.4 211.753 154.378 211.351 154.448 210.906C154.519 210.46 154.665 210.084 154.886 209.776C155.109 209.468 155.39 209.246 155.728 209.109C156.066 208.973 156.445 208.938 156.866 209.005C157.287 209.071 157.637 209.222 157.917 209.456C158.196 209.69 158.393 209.988 158.509 210.349C158.626 210.711 158.649 211.115 158.579 211.56C158.508 212.005 158.361 212.381 158.138 212.687C157.917 212.993 157.638 213.214 157.3 213.351C156.962 213.487 156.582 213.522 156.161 213.455ZM156.296 212.642C156.524 212.678 156.725 212.646 156.898 212.545C157.072 212.442 157.213 212.29 157.321 212.088C157.432 211.887 157.508 211.656 157.549 211.394C157.591 211.13 157.59 210.886 157.548 210.66C157.507 210.433 157.42 210.244 157.287 210.092C157.153 209.941 156.973 209.847 156.744 209.811C156.511 209.774 156.306 209.807 156.131 209.909C155.957 210.012 155.815 210.165 155.704 210.368C155.595 210.57 155.52 210.802 155.478 211.066C155.437 211.328 155.437 211.571 155.478 211.796C155.521 212.022 155.609 212.21 155.742 212.362C155.878 212.512 156.062 212.605 156.296 212.642ZM162.616 211.141L161.674 211.095C161.662 210.997 161.63 210.902 161.578 210.81C161.527 210.717 161.452 210.637 161.351 210.569C161.251 210.502 161.122 210.455 160.965 210.431C160.754 210.397 160.569 210.415 160.41 210.484C160.253 210.553 160.164 210.66 160.143 210.807C160.121 210.932 160.151 211.041 160.232 211.134C160.315 211.228 160.462 211.317 160.673 211.403L161.383 211.676C161.777 211.829 162.058 212.016 162.226 212.238C162.396 212.461 162.457 212.726 162.41 213.035C162.366 213.306 162.248 213.533 162.058 213.716C161.87 213.897 161.629 214.024 161.334 214.096C161.038 214.168 160.711 214.176 160.352 214.119C159.824 214.035 159.417 213.858 159.131 213.586C158.844 213.312 158.701 212.972 158.702 212.566L159.708 212.627C159.722 212.829 159.794 212.991 159.924 213.113C160.055 213.236 160.237 213.315 160.471 213.352C160.712 213.39 160.913 213.372 161.075 213.296C161.238 213.22 161.332 213.109 161.355 212.963C161.374 212.84 161.343 212.73 161.26 212.635C161.179 212.539 161.043 212.454 160.852 212.38L160.141 212.109C159.741 211.958 159.458 211.764 159.292 211.529C159.127 211.292 159.07 211.016 159.121 210.702C159.161 210.436 159.27 210.218 159.447 210.046C159.626 209.873 159.854 209.754 160.133 209.689C160.414 209.622 160.727 209.616 161.071 209.671C161.576 209.751 161.956 209.921 162.212 210.182C162.47 210.444 162.604 210.763 162.616 211.141ZM165.483 210.427L165.359 211.213L162.881 210.82L163.006 210.035L165.483 210.427ZM163.781 209.099L164.797 209.26L164.156 213.306C164.134 213.443 164.138 213.551 164.168 213.63C164.199 213.708 164.248 213.765 164.313 213.803C164.378 213.84 164.453 213.865 164.537 213.878C164.6 213.888 164.659 213.893 164.713 213.892C164.769 213.891 164.811 213.889 164.84 213.886L164.886 214.707C164.829 214.717 164.748 214.726 164.643 214.732C164.541 214.739 164.417 214.733 164.272 214.714C164.017 214.681 163.794 214.606 163.603 214.49C163.413 214.371 163.272 214.213 163.181 214.014C163.091 213.816 163.069 213.583 163.113 213.314L163.781 209.099Z" fill="white"/>
<path d="M164.458 236.73L97.6636 226.151C96.9487 226.038 96.2773 226.526 96.1641 227.241C96.0509 227.956 96.5386 228.627 97.2536 228.74L164.048 239.319C164.763 239.433 165.434 238.945 165.547 238.23C165.66 237.515 165.173 236.844 164.458 236.73Z" fill="black"/>
</g>
</g>
</g>
</g>
</g>
<defs>
<filter id="filter0_ddddddd_291_1932" x="-0.00019455" y="0" width="295.172" height="309.049" filterUnits="userSpaceOnUse" color-interpolation-filters="sRGB">
<feFlood flood-opacity="0" result="BackgroundImageFix"/>
<feColorMatrix in="SourceAlpha" type="matrix" values="0 0 0 0 0 0 0 0 0 0 0 0 0 0 0 0 0 0 127 0" result="hardAlpha"/>
<feOffset dy="31"/>
<feGaussianBlur stdDeviation="11.4"/>
<feComposite in2="hardAlpha" operator="out"/>
<feColorMatrix type="matrix" values="0 0 0 0 0 0 0 0 0 0 0 0 0 0 0 0 0 0 0.055 0"/>
<feBlend mode="normal" in2="BackgroundImageFix" result="effect1_dropShadow_291_1932"/>
<feColorMatrix in="SourceAlpha" type="matrix" values="0 0 0 0 0 0 0 0 0 0 0 0 0 0 0 0 0 0 127 0" result="hardAlpha"/>
<feOffset dy="15"/>
<feGaussianBlur stdDeviation="5.2"/>
<feComposite in2="hardAlpha" operator="out"/>
<feColorMatrix type="matrix" values="0 0 0 0 0 0 0 0 0 0 0 0 0 0 0 0 0 0 0.05 0"/>
<feBlend mode="normal" in2="effect1_dropShadow_291_1932" result="effect2_dropShadow_291_1932"/>
<feColorMatrix in="SourceAlpha" type="matrix" values="0 0 0 0 0 0 0 0 0 0 0 0 0 0 0 0 0 0 127 0" result="hardAlpha"/>
<feOffset dy="9"/>
<feGaussianBlur stdDeviation="2.65"/>
<feComposite in2="hardAlpha" operator="out"/>
<feColorMatrix type="matrix" values="0 0 0 0 0 0 0 0 0 0 0 0 0 0 0 0 0 0 0.047 0"/>
<feBlend mode="normal" in2="effect2_dropShadow_291_1932" result="effect3_dropShadow_291_1932"/>
<feColorMatrix in="SourceAlpha" type="matrix" values="0 0 0 0 0 0 0 0 0 0 0 0 0 0 0 0 0 0 127 0" result="hardAlpha"/>
<feOffset dy="5"/>
<feGaussianBlur stdDeviation="1.45"/>
<feComposite in2="hardAlpha" operator="out"/>
<feColorMatrix type="matrix" values="0 0 0 0 0 0 0 0 0 0 0 0 0 0 0 0 0 0 0.047 0"/>
<feBlend mode="normal" in2="effect3_dropShadow_291_1932" result="effect4_dropShadow_291_1932"/>
<feColorMatrix in="SourceAlpha" type="matrix" values="0 0 0 0 0 0 0 0 0 0 0 0 0 0 0 0 0 0 127 0" result="hardAlpha"/>
<feOffset dy="3"/>
<feGaussianBlur stdDeviation="0.8"/>
<feComposite in2="hardAlpha" operator="out"/>
<feColorMatrix type="matrix" values="0 0 0 0 0 0 0 0 0 0 0 0 0 0 0 0 0 0 0.043 0"/>
<feBlend mode="normal" in2="effect4_dropShadow_291_1932" result="effect5_dropShadow_291_1932"/>
<feColorMatrix in="SourceAlpha" type="matrix" values="0 0 0 0 0 0 0 0 0 0 0 0 0 0 0 0 0 0 127 0" result="hardAlpha"/>
<feOffset dy="2"/>
<feGaussianBlur stdDeviation="0.4"/>
<feComposite in2="hardAlpha" operator="out"/>
<feColorMatrix type="matrix" values="0 0 0 0 0 0 0 0 0 0 0 0 0 0 0 0 0 0 0.04 0"/>
<feBlend mode="normal" in2="effect5_dropShadow_291_1932" result="effect6_dropShadow_291_1932"/>
<feColorMatrix in="SourceAlpha" type="matrix" values="0 0 0 0 0 0 0 0 0 0 0 0 0 0 0 0 0 0 127 0" result="hardAlpha"/>
<feOffset dy="1"/>
<feGaussianBlur stdDeviation="0.2"/>
<feComposite in2="hardAlpha" operator="out"/>
<feColorMatrix type="matrix" values="0 0 0 0 0 0 0 0 0 0 0 0 0 0 0 0 0 0 0.03 0"/>
<feBlend mode="normal" in2="effect6_dropShadow_291_1932" result="effect7_dropShadow_291_1932"/>
<feBlend mode="normal" in="SourceGraphic" in2="effect7_dropShadow_291_1932" result="shape"/>
</filter>
<filter id="filter1_di_291_1932" x="35.2239" y="-5.59091" width="253.655" height="103.748" filterUnits="userSpaceOnUse" color-interpolation-filters="sRGB">
<feFlood flood-opacity="0" result="BackgroundImageFix"/>
<feColorMatrix in="SourceAlpha" type="matrix" values="0 0 0 0 0 0 0 0 0 0 0 0 0 0 0 0 0 0 127 0" result="hardAlpha"/>
<feOffset dy="10.4848"/>
<feGaussianBlur stdDeviation="8.3878"/>
<feComposite in2="hardAlpha" operator="out"/>
<feColorMatrix type="matrix" values="0 0 0 0 0.14902 0 0 0 0 0.14902 0 0 0 0 0.14902 0 0 0 0.24 0"/>
<feBlend mode="normal" in2="BackgroundImageFix" result="effect1_dropShadow_291_1932"/>
<feBlend mode="normal" in="SourceGraphic" in2="effect1_dropShadow_291_1932" result="shape"/>
<feColorMatrix in="SourceAlpha" type="matrix" values="0 0 0 0 0 0 0 0 0 0 0 0 0 0 0 0 0 0 127 0" result="hardAlpha"/>
<feOffset dy="1.04848"/>
<feGaussianBlur stdDeviation="2.09695"/>
<feComposite in2="hardAlpha" operator="arithmetic" k2="-1" k3="1"/>
<feColorMatrix type="matrix" values="0 0 0 0 0.14902 0 0 0 0 0.14902 0 0 0 0 0.14902 0 0 0 0.08 0"/>
<feBlend mode="normal" in2="shape" result="effect2_innerShadow_291_1932"/>
</filter>
<clipPath id="clip0_291_1932">
<rect x="57.8457" width="217.2" height="224.03" rx="12.96" transform="rotate(9 57.8457 0)" fill="white"/>
</clipPath>
<clipPath id="clip1_291_1932">
<rect width="217.2" height="224.03" fill="white" transform="translate(57.8457) rotate(9)"/>
</clipPath>
<clipPath id="clip2_291_1932">
<rect width="217.189" height="224.03" fill="white" transform="translate(57.8511 0.000823975) rotate(9)"/>
</clipPath>
</defs>
</svg>
